<svg xmlns="http://www.w3.org/2000/svg" xmlns:xlink="http://www.w3.org/1999/xlink" contentStyleType="text/css" height="750px" preserveAspectRatio="none" style="width:503px;height:750px;background:#FFFFFF;" version="1.1" viewBox="0 0 503 750" width="503px" zoomAndPan="magnify"><defs/><g><ellipse cx="201.43" cy="16" fill="#222222" rx="10" ry="10" style="stroke:#222222;stroke-width:1.0;"/><g id="Creado"><rect fill="#F1F1F1" height="50" rx="12.5" ry="12.5" style="stroke:#181818;stroke-width:0.5;" width="70.1758" x="166.43" y="103"/><line style="stroke:#181818;stroke-width:0.5;" x1="166.43" x2="236.6058" y1="129.2969" y2="129.2969"/><text fill="#000000" font-family="sans-serif" font-size="14" lengthAdjust="spacing" textLength="50.1758" x="176.43" y="120.9951">Creado</text></g><g id="Planificado"><rect fill="#F1F1F1" height="50" rx="12.5" ry="12.5" style="stroke:#181818;stroke-width:0.5;" width="96.2207" x="153.43" y="230"/><line style="stroke:#181818;stroke-width:0.5;" x1="153.43" x2="249.6507" y1="256.2969" y2="256.2969"/><text fill="#000000" font-family="sans-serif" font-size="14" lengthAdjust="spacing" textLength="76.2207" x="163.43" y="247.9951">Planificado</text></g><g id="EnCurso"><rect fill="#F1F1F1" height="50" rx="12.5" ry="12.5" style="stroke:#181818;stroke-width:0.5;" width="77.9824" x="162.43" y="357"/><line style="stroke:#181818;stroke-width:0.5;" x1="162.43" x2="240.4124" y1="383.2969" y2="383.2969"/><text fill="#000000" font-family="sans-serif" font-size="14" lengthAdjust="spacing" textLength="57.9824" x="172.43" y="374.9951">EnCurso</text></g><g id="Suspendido"><rect fill="#F1F1F1" height="50" rx="12.5" ry="12.5" style="stroke:#181818;stroke-width:0.5;" width="101.6553" x="62.43" y="484"/><line style="stroke:#181818;stroke-width:0.5;" x1="62.43" x2="164.0853" y1="510.2969" y2="510.2969"/><text fill="#000000" font-family="sans-serif" font-size="14" lengthAdjust="spacing" textLength="81.6553" x="72.43" y="501.9951">Suspendido</text></g><g id="Completado"><rect fill="#F1F1F1" height="50" rx="12.5" ry="12.5" style="stroke:#181818;stroke-width:0.5;" width="104.8887" x="313.93" y="484"/><line style="stroke:#181818;stroke-width:0.5;" x1="313.93" x2="418.8187" y1="510.2969" y2="510.2969"/><text fill="#000000" font-family="sans-serif" font-size="14" lengthAdjust="spacing" textLength="84.8887" x="323.93" y="501.9951">Completado</text></g><g id="Archivado"><rect fill="#F1F1F1" height="50" rx="12.5" ry="12.5" style="stroke:#181818;stroke-width:0.5;" width="90.1094" x="321.43" y="611"/><line style="stroke:#181818;stroke-width:0.5;" x1="321.43" x2="411.5394" y1="637.2969" y2="637.2969"/><text fill="#000000" font-family="sans-serif" font-size="14" lengthAdjust="spacing" textLength="70.1094" x="331.43" y="628.9951">Archivado</text></g><ellipse cx="366.43" cy="733" fill="none" rx="11" ry="11" style="stroke:#222222;stroke-width:1.0;"/><ellipse cx="366.43" cy="733" fill="#222222" rx="6" ry="6" style="stroke:#222222;stroke-width:1.0;"/><!--link *start* to Creado--><g id="link_*start*_Creado"><path d="M201.43,26 C201.43,42.63 201.43,72.66 201.43,96.87 " fill="none" id="*start*-to-Creado" style="stroke:#181818;stroke-width:1.0;"/><polygon fill="#181818" points="201.43,102.87,205.43,93.87,201.43,97.87,197.43,93.87,201.43,102.87" style="stroke:#181818;stroke-width:1.0;"/><text fill="#000000" font-family="sans-serif" font-size="13" lengthAdjust="spacing" textLength="122.3384" x="202.43" y="69.0669">Servicio registrado</text></g><!--link Creado to Planificado--><g id="link_Creado_Planificado"><path d="M201.43,153.1 C201.43,175.24 201.43,201.86 201.43,223.97 " fill="none" id="Creado-to-Planificado" style="stroke:#181818;stroke-width:1.0;"/><polygon fill="#181818" points="201.43,229.97,205.43,220.97,201.43,224.97,197.43,220.97,201.43,229.97" style="stroke:#181818;stroke-width:1.0;"/><text fill="#000000" font-family="sans-serif" font-size="13" lengthAdjust="spacing" textLength="176.1729" x="202.43" y="196.0669">Rutas y horarios asignados</text></g><!--link Planificado to EnCurso--><g id="link_Planificado_EnCurso"><path d="M201.43,280.1 C201.43,302.24 201.43,328.86 201.43,350.97 " fill="none" id="Planificado-to-EnCurso" style="stroke:#181818;stroke-width:1.0;"/><polygon fill="#181818" points="201.43,356.97,205.43,347.97,201.43,351.97,197.43,347.97,201.43,356.97" style="stroke:#181818;stroke-width:1.0;"/><text fill="#000000" font-family="sans-serif" font-size="13" lengthAdjust="spacing" textLength="140.5815" x="202.43" y="323.0669">Servicio en operaci&#243;n</text></g><!--link EnCurso to Suspendido--><g id="link_EnCurso_Suspendido"><path d="M162.15,382.31 C119.89,383.94 54.47,393.88 22.43,437 C6,459.12 27.9751,475.5503 56.9351,488.2503 " fill="none" id="EnCurso-to-Suspendido" style="stroke:#181818;stroke-width:1.0;"/><polygon fill="#181818" points="62.43,490.66,55.7942,483.3822,57.851,488.6519,52.5813,490.7087,62.43,490.66" style="stroke:#181818;stroke-width:1.0;"/><text fill="#000000" font-family="sans-serif" font-size="13" lengthAdjust="spacing" textLength="134.3545" x="23.43" y="450.0669">Incidencia reportada</text></g><!--link Suspendido to EnCurso--><g id="link_Suspendido_EnCurso"><path d="M137.65,483.76 C146,474.8 155.08,464.31 162.43,454 C172.97,439.23 180.0825,426.6744 187.2325,412.5344 " fill="none" id="Suspendido-to-EnCurso" style="stroke:#181818;stroke-width:1.0;"/><polygon fill="#181818" points="189.94,407.18,182.3092,413.4066,187.6838,411.642,189.4484,417.0166,189.94,407.18" style="stroke:#181818;stroke-width:1.0;"/><text fill="#000000" font-family="sans-serif" font-size="13" lengthAdjust="spacing" textLength="123.208" x="174.43" y="450.0669">Incidencia resuelta</text></g><!--link EnCurso to Completado--><g id="link_EnCurso_Completado"><path d="M240.53,398.64 C261.29,408.01 286.54,421.17 306.43,437 C323.23,450.36 335.1835,464.1999 346.2335,479.0199 " fill="none" id="EnCurso-to-Completado" style="stroke:#181818;stroke-width:1.0;"/><polygon fill="#181818" points="349.82,483.83,347.647,474.2238,346.8313,479.8216,341.2335,479.0058,349.82,483.83" style="stroke:#181818;stroke-width:1.0;"/><text fill="#000000" font-family="sans-serif" font-size="13" lengthAdjust="spacing" textLength="97.0938" x="324.43" y="450.0669">Ruta finalizada</text></g><!--link Completado to Archivado--><g id="link_Completado_Archivado"><path d="M366.43,534.1 C366.43,556.24 366.43,582.86 366.43,604.97 " fill="none" id="Completado-to-Archivado" style="stroke:#181818;stroke-width:1.0;"/><polygon fill="#181818" points="366.43,610.97,370.43,601.97,366.43,605.97,362.43,601.97,366.43,610.97" style="stroke:#181818;stroke-width:1.0;"/><text fill="#000000" font-family="sans-serif" font-size="13" lengthAdjust="spacing" textLength="128.4702" x="367.43" y="577.0669">Datos almacenados</text></g><!--link Archivado to *end*--><g id="link_Archivado_*end*"><path d="M366.43,661.46 C366.43,681.04 366.43,701.49 366.43,715.8 " fill="none" id="Archivado-to-*end*" style="stroke:#181818;stroke-width:1.0;"/><polygon fill="#181818" points="366.43,721.8,370.43,712.8,366.43,716.8,362.43,712.8,366.43,721.8" style="stroke:#181818;stroke-width:1.0;"/></g><!--SRC=[LS-z3e8m40VmlKznCmalu61YqC7Do4WOBkM0IqfBhYs9lfQFu8j9HGCi7Vh_tLULrP3dHoY4i75mW99aOiqEX3hsGUPVfNvfWZU3bblMYxx7W1uUq3j1OUS1FNTsphpQmbHuiKKKlnj15jn8WfhVBwl-8E4o-f5imzyXLwkveVd1UQdHIS06rKRik- -qZsG2xbeNRXWDXNL_QDcYuMVggZPfmYVHFK-BFMD81ve1DIqdhccoLLP_0000]--></g></svg>