<svg xmlns="http://www.w3.org/2000/svg" xmlns:xlink="http://www.w3.org/1999/xlink" contentStyleType="text/css" height="726px" preserveAspectRatio="none" style="width:846px;height:726px;background:#FFFFFF;" version="1.1" viewBox="0 0 846 726" width="846px" zoomAndPan="magnify"><defs/><g><!--class Persona--><g id="elem_Persona"><rect codeLine="1" fill="#F1F1F1" height="80.5938" id="Persona" rx="2.5" ry="2.5" style="stroke:#181818;stroke-width:0.5;" width="88.123" x="297.5" y="7"/><ellipse cx="312.5" cy="23" fill="#ADD1B2" rx="11" ry="11" style="stroke:#181818;stroke-width:1.0;"/><path d="M315.4688,28.6406 Q314.8906,28.9375 314.25,29.0781 Q313.6094,29.2344 312.9063,29.2344 Q310.4063,29.2344 309.0781,27.5938 Q307.7656,25.9375 307.7656,22.8125 Q307.7656,19.6875 309.0781,18.0313 Q310.4063,16.375 312.9063,16.375 Q313.6094,16.375 314.25,16.5313 Q314.9063,16.6875 315.4688,16.9844 L315.4688,19.7031 Q314.8438,19.125 314.25,18.8594 Q313.6563,18.5781 313.0313,18.5781 Q311.6875,18.5781 311,19.6563 Q310.3125,20.7188 310.3125,22.8125 Q310.3125,24.9063 311,25.9844 Q311.6875,27.0469 313.0313,27.0469 Q313.6563,27.0469 314.25,26.7813 Q314.8438,26.5 315.4688,25.9219 L315.4688,28.6406 Z " fill="#000000"/><text fill="#000000" font-family="sans-serif" font-size="14" lengthAdjust="spacing" textLength="56.123" x="326.5" y="27.8467">Persona</text><line style="stroke:#181818;stroke-width:0.5;" x1="298.5" x2="384.623" y1="39" y2="39"/><text fill="#000000" font-family="sans-serif" font-size="14" lengthAdjust="spacing" textLength="61.9473" x="303.5" y="55.9951">edad: 18</text><text fill="#000000" font-family="sans-serif" font-size="14" lengthAdjust="spacing" textLength="66.4453" x="303.5" y="72.292">dni: 7277</text><line style="stroke:#181818;stroke-width:0.5;" x1="298.5" x2="384.623" y1="79.5938" y2="79.5938"/></g><!--class Pasajero--><g id="elem_Pasajero"><rect codeLine="6" fill="#F1F1F1" height="64.2969" id="Pasajero" rx="2.5" ry="2.5" style="stroke:#181818;stroke-width:0.5;" width="102.8359" x="439" y="157.5"/><ellipse cx="459.0027" cy="173.5" fill="#ADD1B2" rx="11" ry="11" style="stroke:#181818;stroke-width:1.0;"/><path d="M461.9715,179.1406 Q461.3934,179.4375 460.7527,179.5781 Q460.1121,179.7344 459.409,179.7344 Q456.909,179.7344 455.5809,178.0938 Q454.2684,176.4375 454.2684,173.3125 Q454.2684,170.1875 455.5809,168.5313 Q456.909,166.875 459.409,166.875 Q460.1121,166.875 460.7527,167.0313 Q461.409,167.1875 461.9715,167.4844 L461.9715,170.2031 Q461.3465,169.625 460.7527,169.3594 Q460.159,169.0781 459.534,169.0781 Q458.1902,169.0781 457.5027,170.1563 Q456.8152,171.2188 456.8152,173.3125 Q456.8152,175.4063 457.5027,176.4844 Q458.1902,177.5469 459.534,177.5469 Q460.159,177.5469 460.7527,177.2813 Q461.3465,177 461.9715,176.4219 L461.9715,179.1406 Z " fill="#000000"/><text fill="#000000" font-family="sans-serif" font-size="14" lengthAdjust="spacing" textLength="59.7188" x="474.1145" y="178.3467">Pasajero</text><line style="stroke:#181818;stroke-width:0.5;" x1="440" x2="540.8359" y1="189.5" y2="189.5"/><text fill="#000000" font-family="sans-serif" font-size="14" lengthAdjust="spacing" textLength="90.8359" x="445" y="206.4951">asiento: "a3"</text><line style="stroke:#181818;stroke-width:0.5;" x1="440" x2="540.8359" y1="213.7969" y2="213.7969"/></g><!--class Vehiculo--><g id="elem_Vehiculo"><rect codeLine="36" fill="#F1F1F1" height="80.5938" id="Vehiculo" rx="2.5" ry="2.5" style="stroke:#181818;stroke-width:0.5;" width="114.2793" x="420.5" y="307"/><ellipse cx="445.5354" cy="323" fill="#ADD1B2" rx="11" ry="11" style="stroke:#181818;stroke-width:1.0;"/><path d="M448.5041,328.6406 Q447.926,328.9375 447.2854,329.0781 Q446.6447,329.2344 445.9416,329.2344 Q443.4416,329.2344 442.1135,327.5938 Q440.801,325.9375 440.801,322.8125 Q440.801,319.6875 442.1135,318.0313 Q443.4416,316.375 445.9416,316.375 Q446.6447,316.375 447.2854,316.5313 Q447.9416,316.6875 448.5041,316.9844 L448.5041,319.7031 Q447.8791,319.125 447.2854,318.8594 Q446.6916,318.5781 446.0666,318.5781 Q444.7229,318.5781 444.0354,319.6563 Q443.3479,320.7188 443.3479,322.8125 Q443.3479,324.9063 444.0354,325.9844 Q444.7229,327.0469 446.0666,327.0469 Q446.6916,327.0469 447.2854,326.7813 Q447.8791,326.5 448.5041,325.9219 L448.5041,328.6406 Z " fill="#000000"/><text fill="#000000" font-family="sans-serif" font-size="14" lengthAdjust="spacing" textLength="59.9785" x="461.7654" y="327.8467">Vehiculo</text><line style="stroke:#181818;stroke-width:0.5;" x1="421.5" x2="533.7793" y1="339" y2="339"/><text fill="#000000" font-family="sans-serif" font-size="14" lengthAdjust="spacing" textLength="102.2793" x="426.5" y="355.9951">matricula: 737</text><text fill="#000000" font-family="sans-serif" font-size="14" lengthAdjust="spacing" textLength="85.21" x="426.5" y="372.292">color: "azul"</text><line style="stroke:#181818;stroke-width:0.5;" x1="421.5" x2="533.7793" y1="379.5938" y2="379.5938"/></g><!--class Tarifa--><g id="elem_Tarifa"><rect codeLine="22" fill="#F1F1F1" height="64.2969" id="Tarifa" rx="2.5" ry="2.5" style="stroke:#181818;stroke-width:0.5;" width="105.1602" x="734" y="315.5"/><ellipse cx="763.7942" cy="331.5" fill="#ADD1B2" rx="11" ry="11" style="stroke:#181818;stroke-width:1.0;"/><path d="M766.7629,337.1406 Q766.1848,337.4375 765.5442,337.5781 Q764.9036,337.7344 764.2004,337.7344 Q761.7004,337.7344 760.3723,336.0938 Q759.0598,334.4375 759.0598,331.3125 Q759.0598,328.1875 760.3723,326.5313 Q761.7004,324.875 764.2004,324.875 Q764.9036,324.875 765.5442,325.0313 Q766.2004,325.1875 766.7629,325.4844 L766.7629,328.2031 Q766.1379,327.625 765.5442,327.3594 Q764.9504,327.0781 764.3254,327.0781 Q762.9817,327.0781 762.2942,328.1563 Q761.6067,329.2188 761.6067,331.3125 Q761.6067,333.4063 762.2942,334.4844 Q762.9817,335.5469 764.3254,335.5469 Q764.9504,335.5469 765.5442,335.2813 Q766.1379,335 766.7629,334.4219 L766.7629,337.1406 Z " fill="#000000"/><text fill="#000000" font-family="sans-serif" font-size="14" lengthAdjust="spacing" textLength="40.2842" x="781.0818" y="336.3467">Tarifa</text><line style="stroke:#181818;stroke-width:0.5;" x1="735" x2="838.1602" y1="347.5" y2="347.5"/><text fill="#000000" font-family="sans-serif" font-size="14" lengthAdjust="spacing" textLength="93.1602" x="740" y="364.4951">tipo: "adulto"</text><line style="stroke:#181818;stroke-width:0.5;" x1="735" x2="838.1602" y1="371.7969" y2="371.7969"/></g><!--class Conductor--><g id="elem_Conductor"><rect codeLine="15" fill="#F1F1F1" height="80.5938" id="Conductor" rx="2.5" ry="2.5" style="stroke:#181818;stroke-width:0.5;" width="111.7705" x="285.5" y="149"/><ellipse cx="303.7801" cy="165" fill="#ADD1B2" rx="11" ry="11" style="stroke:#181818;stroke-width:1.0;"/><path d="M306.7488,170.6406 Q306.1707,170.9375 305.5301,171.0781 Q304.8895,171.2344 304.1863,171.2344 Q301.6863,171.2344 300.3582,169.5938 Q299.0457,167.9375 299.0457,164.8125 Q299.0457,161.6875 300.3582,160.0313 Q301.6863,158.375 304.1863,158.375 Q304.8895,158.375 305.5301,158.5313 Q306.1863,158.6875 306.7488,158.9844 L306.7488,161.7031 Q306.1238,161.125 305.5301,160.8594 Q304.9363,160.5781 304.3113,160.5781 Q302.9676,160.5781 302.2801,161.6563 Q301.5926,162.7188 301.5926,164.8125 Q301.5926,166.9063 302.2801,167.9844 Q302.9676,169.0469 304.3113,169.0469 Q304.9363,169.0469 305.5301,168.7813 Q306.1238,168.5 306.7488,167.9219 L306.7488,170.6406 Z " fill="#000000"/><text fill="#000000" font-family="sans-serif" font-size="14" lengthAdjust="spacing" textLength="72.4814" x="318.509" y="169.8467">Conductor</text><line style="stroke:#181818;stroke-width:0.5;" x1="286.5" x2="396.2705" y1="181" y2="181"/><text fill="#000000" font-family="sans-serif" font-size="14" lengthAdjust="spacing" textLength="99.7705" x="291.5" y="197.9951">experiencia: 4</text><text fill="#000000" font-family="sans-serif" font-size="14" lengthAdjust="spacing" textLength="84.54" x="291.5" y="214.292">carnet: "a2"</text><line style="stroke:#181818;stroke-width:0.5;" x1="286.5" x2="396.2705" y1="221.5938" y2="221.5938"/></g><!--class Incidencia--><g id="elem_Incidencia"><rect codeLine="49" fill="#F1F1F1" height="80.5938" id="Incidencia" rx="2.5" ry="2.5" style="stroke:#181818;stroke-width:0.5;" width="193.5352" x="239.5" y="473"/><ellipse cx="296.4536" cy="489" fill="#ADD1B2" rx="11" ry="11" style="stroke:#181818;stroke-width:1.0;"/><path d="M299.4224,494.6406 Q298.8442,494.9375 298.2036,495.0781 Q297.563,495.2344 296.8599,495.2344 Q294.3599,495.2344 293.0317,493.5938 Q291.7192,491.9375 291.7192,488.8125 Q291.7192,485.6875 293.0317,484.0313 Q294.3599,482.375 296.8599,482.375 Q297.563,482.375 298.2036,482.5313 Q298.8599,482.6875 299.4224,482.9844 L299.4224,485.7031 Q298.7974,485.125 298.2036,484.8594 Q297.6099,484.5781 296.9849,484.5781 Q295.6411,484.5781 294.9536,485.6563 Q294.2661,486.7188 294.2661,488.8125 Q294.2661,490.9063 294.9536,491.9844 Q295.6411,493.0469 296.9849,493.0469 Q297.6099,493.0469 298.2036,492.7813 Q298.7974,492.5 299.4224,491.9219 L299.4224,494.6406 Z " fill="#000000"/><text fill="#000000" font-family="sans-serif" font-size="14" lengthAdjust="spacing" textLength="71.1279" x="316.9536" y="493.8467">Incidencia</text><line style="stroke:#181818;stroke-width:0.5;" x1="240.5" x2="432.0352" y1="505" y2="505"/><text fill="#000000" font-family="sans-serif" font-size="14" lengthAdjust="spacing" textLength="35.3076" x="245.5" y="521.9951">id:18</text><text fill="#000000" font-family="sans-serif" font-size="14" lengthAdjust="spacing" textLength="181.5352" x="245.5" y="538.292">descripcion: "Fallo motor"</text><line style="stroke:#181818;stroke-width:0.5;" x1="240.5" x2="432.0352" y1="545.5938" y2="545.5938"/></g><!--class FormaDePago--><g id="elem_FormaDePago"><rect codeLine="27" fill="#F1F1F1" height="64.2969" id="FormaDePago" rx="2.5" ry="2.5" style="stroke:#181818;stroke-width:0.5;" width="144.7129" x="603" y="481.5"/><ellipse cx="624.4147" cy="497.5" fill="#ADD1B2" rx="11" ry="11" style="stroke:#181818;stroke-width:1.0;"/><path d="M627.3834,503.1406 Q626.8053,503.4375 626.1647,503.5781 Q625.5241,503.7344 624.8209,503.7344 Q622.3209,503.7344 620.9928,502.0938 Q619.6803,500.4375 619.6803,497.3125 Q619.6803,494.1875 620.9928,492.5313 Q622.3209,490.875 624.8209,490.875 Q625.5241,490.875 626.1647,491.0313 Q626.8209,491.1875 627.3834,491.4844 L627.3834,494.2031 Q626.7584,493.625 626.1647,493.3594 Q625.5709,493.0781 624.9459,493.0781 Q623.6022,493.0781 622.9147,494.1563 Q622.2272,495.2188 622.2272,497.3125 Q622.2272,499.4063 622.9147,500.4844 Q623.6022,501.5469 624.9459,501.5469 Q625.5709,501.5469 626.1647,501.2813 Q626.7584,501 627.3834,500.4219 L627.3834,503.1406 Z " fill="#000000"/><text fill="#000000" font-family="sans-serif" font-size="14" lengthAdjust="spacing" textLength="98.458" x="639.8402" y="502.3467">FormaDePago</text><line style="stroke:#181818;stroke-width:0.5;" x1="604" x2="746.7129" y1="513.5" y2="513.5"/><text fill="#000000" font-family="sans-serif" font-size="14" lengthAdjust="spacing" textLength="132.7129" x="609" y="530.4951">forma: "usoAbono"</text><line style="stroke:#181818;stroke-width:0.5;" x1="604" x2="746.7129" y1="537.7969" y2="537.7969"/></g><!--class Abono--><g id="elem_Abono"><rect codeLine="31" fill="#F1F1F1" height="64.2969" id="Abono" rx="2.5" ry="2.5" style="stroke:#181818;stroke-width:0.5;" width="129.2705" x="570" y="315.5"/><ellipse cx="608.7612" cy="331.5" fill="#ADD1B2" rx="11" ry="11" style="stroke:#181818;stroke-width:1.0;"/><path d="M611.73,337.1406 Q611.1519,337.4375 610.5112,337.5781 Q609.8706,337.7344 609.1675,337.7344 Q606.6675,337.7344 605.3394,336.0938 Q604.0269,334.4375 604.0269,331.3125 Q604.0269,328.1875 605.3394,326.5313 Q606.6675,324.875 609.1675,324.875 Q609.8706,324.875 610.5112,325.0313 Q611.1675,325.1875 611.73,325.4844 L611.73,328.2031 Q611.105,327.625 610.5112,327.3594 Q609.9175,327.0781 609.2925,327.0781 Q607.9487,327.0781 607.2612,328.1563 Q606.5737,329.2188 606.5737,331.3125 Q606.5737,333.4063 607.2612,334.4844 Q607.9487,335.5469 609.2925,335.5469 Q609.9175,335.5469 610.5112,335.2813 Q611.105,335 611.73,334.4219 L611.73,337.1406 Z " fill="#000000"/><text fill="#000000" font-family="sans-serif" font-size="14" lengthAdjust="spacing" textLength="44.4678" x="628.0415" y="336.3467">Abono</text><line style="stroke:#181818;stroke-width:0.5;" x1="571" x2="698.2705" y1="347.5" y2="347.5"/><text fill="#000000" font-family="sans-serif" font-size="14" lengthAdjust="spacing" textLength="117.2705" x="576" y="364.4951">tipo: "trimestral"</text><line style="stroke:#181818;stroke-width:0.5;" x1="571" x2="698.2705" y1="371.7969" y2="371.7969"/></g><!--class Flota--><g id="elem_Flota"><rect codeLine="43" fill="#F1F1F1" height="64.2969" id="Flota" rx="2.5" ry="2.5" style="stroke:#181818;stroke-width:0.5;" width="117.082" x="128" y="157.5"/><ellipse cx="165.7276" cy="173.5" fill="#ADD1B2" rx="11" ry="11" style="stroke:#181818;stroke-width:1.0;"/><path d="M168.6964,179.1406 Q168.1183,179.4375 167.4776,179.5781 Q166.837,179.7344 166.1339,179.7344 Q163.6339,179.7344 162.3058,178.0938 Q160.9933,176.4375 160.9933,173.3125 Q160.9933,170.1875 162.3058,168.5313 Q163.6339,166.875 166.1339,166.875 Q166.837,166.875 167.4776,167.0313 Q168.1339,167.1875 168.6964,167.4844 L168.6964,170.2031 Q168.0714,169.625 167.4776,169.3594 Q166.8839,169.0781 166.2589,169.0781 Q164.9151,169.0781 164.2276,170.1563 Q163.5401,171.2188 163.5401,173.3125 Q163.5401,175.4063 164.2276,176.4844 Q164.9151,177.5469 166.2589,177.5469 Q166.8839,177.5469 167.4776,177.2813 Q168.0714,177 168.6964,176.4219 L168.6964,179.1406 Z " fill="#000000"/><text fill="#000000" font-family="sans-serif" font-size="14" lengthAdjust="spacing" textLength="34.5762" x="184.7782" y="178.3467">Flota</text><line style="stroke:#181818;stroke-width:0.5;" x1="129" x2="244.082" y1="189.5" y2="189.5"/><text fill="#000000" font-family="sans-serif" font-size="14" lengthAdjust="spacing" textLength="105.082" x="134" y="206.4951">empresa: "tus"</text><line style="stroke:#181818;stroke-width:0.5;" x1="129" x2="244.082" y1="213.7969" y2="213.7969"/></g><!--class Servicio--><g id="elem_Servicio"><rect codeLine="54" fill="#F1F1F1" height="64.2969" id="Servicio" rx="2.5" ry="2.5" style="stroke:#181818;stroke-width:0.5;" width="87.583" x="138.5" y="315.5"/><ellipse cx="153.5" cy="331.5" fill="#ADD1B2" rx="11" ry="11" style="stroke:#181818;stroke-width:1.0;"/><path d="M156.4688,337.1406 Q155.8906,337.4375 155.25,337.5781 Q154.6094,337.7344 153.9063,337.7344 Q151.4063,337.7344 150.0781,336.0938 Q148.7656,334.4375 148.7656,331.3125 Q148.7656,328.1875 150.0781,326.5313 Q151.4063,324.875 153.9063,324.875 Q154.6094,324.875 155.25,325.0313 Q155.9063,325.1875 156.4688,325.4844 L156.4688,328.2031 Q155.8438,327.625 155.25,327.3594 Q154.6563,327.0781 154.0313,327.0781 Q152.6875,327.0781 152,328.1563 Q151.3125,329.2188 151.3125,331.3125 Q151.3125,333.4063 152,334.4844 Q152.6875,335.5469 154.0313,335.5469 Q154.6563,335.5469 155.25,335.2813 Q155.8438,335 156.4688,334.4219 L156.4688,337.1406 Z " fill="#000000"/><text fill="#000000" font-family="sans-serif" font-size="14" lengthAdjust="spacing" textLength="55.583" x="167.5" y="336.3467">Servicio</text><line style="stroke:#181818;stroke-width:0.5;" x1="139.5" x2="225.083" y1="347.5" y2="347.5"/><text fill="#000000" font-family="sans-serif" font-size="14" lengthAdjust="spacing" textLength="26.4004" x="144.5" y="364.4951">id:1</text><line style="stroke:#181818;stroke-width:0.5;" x1="139.5" x2="225.083" y1="371.7969" y2="371.7969"/></g><!--class Ruta--><g id="elem_Ruta"><rect codeLine="66" fill="#F1F1F1" height="96.8906" id="Ruta" rx="2.5" ry="2.5" style="stroke:#181818;stroke-width:0.5;" width="89.3145" x="115" y="465"/><ellipse cx="141.0905" cy="481" fill="#ADD1B2" rx="11" ry="11" style="stroke:#181818;stroke-width:1.0;"/><path d="M144.0592,486.6406 Q143.4811,486.9375 142.8405,487.0781 Q142.1999,487.2344 141.4967,487.2344 Q138.9967,487.2344 137.6686,485.5938 Q136.3561,483.9375 136.3561,480.8125 Q136.3561,477.6875 137.6686,476.0313 Q138.9967,474.375 141.4967,474.375 Q142.1999,474.375 142.8405,474.5313 Q143.4967,474.6875 144.0592,474.9844 L144.0592,477.7031 Q143.4342,477.125 142.8405,476.8594 Q142.2467,476.5781 141.6217,476.5781 Q140.278,476.5781 139.5905,477.6563 Q138.903,478.7188 138.903,480.8125 Q138.903,482.9063 139.5905,483.9844 Q140.278,485.0469 141.6217,485.0469 Q142.2467,485.0469 142.8405,484.7813 Q143.4342,484.5 144.0592,483.9219 L144.0592,486.6406 Z " fill="#000000"/><text fill="#000000" font-family="sans-serif" font-size="14" lengthAdjust="spacing" textLength="32.6689" x="157.555" y="485.8467">Ruta</text><line style="stroke:#181818;stroke-width:0.5;" x1="116" x2="203.3145" y1="497" y2="497"/><text fill="#000000" font-family="sans-serif" font-size="14" lengthAdjust="spacing" textLength="44.2148" x="121" y="513.9951">id:737</text><text fill="#000000" font-family="sans-serif" font-size="14" lengthAdjust="spacing" textLength="77.3145" x="121" y="530.292">inicio: "SA"</text><text fill="#000000" font-family="sans-serif" font-size="14" lengthAdjust="spacing" textLength="57.8936" x="121" y="546.5889">fin: "TB"</text><line style="stroke:#181818;stroke-width:0.5;" x1="116" x2="203.3145" y1="553.8906" y2="553.8906"/></g><!--class Paradas--><g id="elem_Paradas"><rect codeLine="60" fill="#F1F1F1" height="80.5938" id="Paradas" rx="2.5" ry="2.5" style="stroke:#181818;stroke-width:0.5;" width="132.5928" x="7" y="639"/><ellipse cx="42.0145" cy="655" fill="#ADD1B2" rx="11" ry="11" style="stroke:#181818;stroke-width:1.0;"/><path d="M44.9832,660.6406 Q44.4051,660.9375 43.7645,661.0781 Q43.1238,661.2344 42.4207,661.2344 Q39.9207,661.2344 38.5926,659.5938 Q37.2801,657.9375 37.2801,654.8125 Q37.2801,651.6875 38.5926,650.0313 Q39.9207,648.375 42.4207,648.375 Q43.1238,648.375 43.7645,648.5313 Q44.4207,648.6875 44.9832,648.9844 L44.9832,651.7031 Q44.3582,651.125 43.7645,650.8594 Q43.1707,650.5781 42.5457,650.5781 Q41.202,650.5781 40.5145,651.6563 Q39.827,652.7188 39.827,654.8125 Q39.827,656.9063 40.5145,657.9844 Q41.202,659.0469 42.5457,659.0469 Q43.1707,659.0469 43.7645,658.7813 Q44.3582,658.5 44.9832,657.9219 L44.9832,660.6406 Z " fill="#000000"/><text fill="#000000" font-family="sans-serif" font-size="14" lengthAdjust="spacing" textLength="56.1162" x="60.4621" y="659.8467">Paradas</text><line style="stroke:#181818;stroke-width:0.5;" x1="8" x2="138.5928" y1="671" y2="671"/><text fill="#000000" font-family="sans-serif" font-size="14" lengthAdjust="spacing" textLength="35.3076" x="13" y="687.9951">id:12</text><text fill="#000000" font-family="sans-serif" font-size="14" lengthAdjust="spacing" textLength="120.5928" x="13" y="704.292">direccion: "av19"</text><line style="stroke:#181818;stroke-width:0.5;" x1="8" x2="138.5928" y1="711.5938" y2="711.5938"/></g><!--class Horarios--><g id="elem_Horarios"><rect codeLine="73" fill="#F1F1F1" height="80.5938" id="Horarios" rx="2.5" ry="2.5" style="stroke:#181818;stroke-width:0.5;" width="143.209" x="175" y="639"/><ellipse cx="213.5244" cy="655" fill="#ADD1B2" rx="11" ry="11" style="stroke:#181818;stroke-width:1.0;"/><path d="M216.4931,660.6406 Q215.915,660.9375 215.2744,661.0781 Q214.6337,661.2344 213.9306,661.2344 Q211.4306,661.2344 210.1025,659.5938 Q208.79,657.9375 208.79,654.8125 Q208.79,651.6875 210.1025,650.0313 Q211.4306,648.375 213.9306,648.375 Q214.6337,648.375 215.2744,648.5313 Q215.9306,648.6875 216.4931,648.9844 L216.4931,651.7031 Q215.8681,651.125 215.2744,650.8594 Q214.6806,650.5781 214.0556,650.5781 Q212.7119,650.5781 212.0244,651.6563 Q211.3369,652.7188 211.3369,654.8125 Q211.3369,656.9063 212.0244,657.9844 Q212.7119,659.0469 214.0556,659.0469 Q214.6806,659.0469 215.2744,658.7813 Q215.8681,658.5 216.4931,657.9219 L216.4931,660.6406 Z " fill="#000000"/><text fill="#000000" font-family="sans-serif" font-size="14" lengthAdjust="spacing" textLength="58.9326" x="232.752" y="659.8467">Horarios</text><line style="stroke:#181818;stroke-width:0.5;" x1="176" x2="317.209" y1="671" y2="671"/><text fill="#000000" font-family="sans-serif" font-size="14" lengthAdjust="spacing" textLength="131.209" x="181" y="687.9951">horaInicio: "12:27"</text><text fill="#000000" font-family="sans-serif" font-size="14" lengthAdjust="spacing" textLength="114.9805" x="181" y="704.292">horaFin: "13:27"</text><line style="stroke:#181818;stroke-width:0.5;" x1="176" x2="317.209" y1="711.5938" y2="711.5938"/></g><!--reverse link Persona to Pasajero--><g id="link_Persona_Pasajero"><path codeLine="10" d="M396.917,100.5665 C420.147,122.3965 435.43,136.76 457.09,157.11 " fill="none" id="Persona-backto-Pasajero" style="stroke:#181818;stroke-width:1.0;"/><polygon fill="none" points="383.8,88.24,392.8082,104.9389,401.0259,96.1942,383.8,88.24" style="stroke:#181818;stroke-width:1.0;"/></g><!--link Pasajero to Vehiculo--><g id="link_Pasajero_Vehiculo"><path codeLine="11" d="M487.9,221.69 C485.86,246.15 483.5081,274.3607 481.3081,300.7707 " fill="none" id="Pasajero-to-Vehiculo" style="stroke:#181818;stroke-width:1.0;"/><polygon fill="#181818" points="480.81,306.75,485.5433,298.1131,481.2251,301.7673,477.5709,297.449,480.81,306.75" style="stroke:#181818;stroke-width:1.0;"/><text fill="#000000" font-family="sans-serif" font-size="13" lengthAdjust="spacing" textLength="81.1929" x="485.5" y="273.0669">se monta en</text></g><!--link Pasajero to Tarifa--><g id="link_Pasajero_Tarifa"><path codeLine="12" d="M542.4,216.55 C588.4,239.81 657.26,275.03 716.5,307 C722.15,310.05 722.7834,310.3692 728.6234,313.6092 " fill="none" id="Pasajero-to-Tarifa" style="stroke:#181818;stroke-width:1.0;"/><polygon fill="#181818" points="733.87,316.52,727.9406,308.656,729.4978,314.0943,724.0595,315.6515,733.87,316.52" style="stroke:#181818;stroke-width:1.0;"/><text fill="#000000" font-family="sans-serif" font-size="13" lengthAdjust="spacing" textLength="32.4365" x="655.5" y="273.0669">paga</text></g><!--reverse link Persona to Conductor--><g id="link_Persona_Conductor"><path codeLine="19" d="M341.5,106.24 C341.5,125.16 341.5,129.73 341.5,148.66 " fill="none" id="Persona-backto-Conductor" style="stroke:#181818;stroke-width:1.0;"/><polygon fill="none" points="341.5,88.24,335.5,106.24,347.5,106.24,341.5,88.24" style="stroke:#181818;stroke-width:1.0;"/></g><!--link Conductor to Incidencia--><g id="link_Conductor_Incidencia"><path codeLine="20" d="M340.88,230.31 C339.92,292.23 338.1731,404.9207 337.2131,466.7807 " fill="none" id="Conductor-to-Incidencia" style="stroke:#181818;stroke-width:1.0;"/><polygon fill="#181818" points="337.12,472.78,341.2592,463.8432,337.1976,467.7806,333.2601,463.719,337.12,472.78" style="stroke:#181818;stroke-width:1.0;"/><text fill="#000000" font-family="sans-serif" font-size="13" lengthAdjust="spacing" textLength="47.9565" x="341.5" y="352.0669">reporta</text></g><!--link Tarifa to FormaDePago--><g id="link_Tarifa_FormaDePago"><path codeLine="25" d="M765.36,379.73 C745.61,408.91 719.6539,447.2717 699.9239,476.4117 " fill="none" id="Tarifa-to-FormaDePago" style="stroke:#181818;stroke-width:1.0;"/><polygon fill="#181818" points="696.56,481.38,704.9181,476.1702,699.3633,477.2397,698.2937,471.6849,696.56,481.38" style="stroke:#181818;stroke-width:1.0;"/><text fill="#000000" font-family="sans-serif" font-size="13" lengthAdjust="spacing" textLength="23.3403" x="738.5" y="431.0669">con</text></g><!--link Abono to FormaDePago--><g id="link_Abono_FormaDePago"><path codeLine="34" d="M642.31,379.73 C649.6,408.91 658.9738,446.4194 666.2638,475.5594 " fill="none" id="Abono-to-FormaDePago" style="stroke:#181818;stroke-width:1.0;"/><polygon fill="#181818" points="667.72,481.38,669.4162,471.6783,666.5065,476.5295,661.6554,473.6198,667.72,481.38" style="stroke:#181818;stroke-width:1.0;"/><text fill="#000000" font-family="sans-serif" font-size="13" lengthAdjust="spacing" textLength="41.4185" x="655.5" y="431.0669">asocia</text></g><!--link Conductor to Vehiculo--><g id="link_Conductor_Vehiculo"><path codeLine="40" d="M376.17,230.27 C396.63,253.74 418.4965,278.828 438.9465,302.278 " fill="none" id="Conductor-to-Vehiculo" style="stroke:#181818;stroke-width:1.0;"/><polygon fill="#181818" points="442.89,306.8,439.9894,297.388,439.6037,303.0316,433.96,302.646,442.89,306.8" style="stroke:#181818;stroke-width:1.0;"/><text fill="#000000" font-family="sans-serif" font-size="13" lengthAdjust="spacing" textLength="54.9771" x="415.5" y="273.0669">conduce</text></g><!--link Vehiculo to Incidencia--><g id="link_Vehiculo_Incidencia"><path codeLine="41" d="M443.37,388.2 C421.28,413.89 396.5526,442.6612 374.4726,468.3312 " fill="none" id="Vehiculo-to-Incidencia" style="stroke:#181818;stroke-width:1.0;"/><polygon fill="#181818" points="370.56,472.88,379.4615,468.6652,373.8205,469.0894,373.3964,463.4484,370.56,472.88" style="stroke:#181818;stroke-width:1.0;"/><text fill="#000000" font-family="sans-serif" font-size="13" lengthAdjust="spacing" textLength="32.9316" x="416.5" y="431.0669">sufre</text></g><!--link Flota to Vehiculo--><g id="link_Flota_Vehiculo"><path codeLine="46" d="M244.34,221.51 C295.39,248.87 358.8238,282.8804 409.6938,310.1504 " fill="none" id="Flota-to-Vehiculo" style="stroke:#181818;stroke-width:1.0;"/><polygon fill="#181818" points="420.27,315.82,416.8718,309.4598,409.6938,310.1504,413.092,316.5106,420.27,315.82" style="stroke:#181818;stroke-width:1.0;"/><text fill="#000000" font-family="sans-serif" font-size="13" lengthAdjust="spacing" textLength="46.541" x="342.5" y="273.0669">incluye</text></g><!--link Flota to Servicio--><g id="link_Flota_Servicio"><path codeLine="47" d="M182.7,221.59 C181.41,233.57 180.13,247.4 179.5,260 C178.58,278.31 178.885,292.8194 179.805,309.2694 " fill="none" id="Flota-to-Servicio" style="stroke:#181818;stroke-width:1.0;"/><polygon fill="#181818" points="180.14,315.26,183.6312,306.0507,179.8608,310.2678,175.6437,306.4974,180.14,315.26" style="stroke:#181818;stroke-width:1.0;"/><text fill="#000000" font-family="sans-serif" font-size="13" lengthAdjust="spacing" textLength="41.0186" x="180.5" y="273.0669">ofrece</text></g><!--link Servicio to Ruta--><g id="link_Servicio_Ruta"><path codeLine="57" d="M178.12,379.73 C174.74,403.8 170.8543,431.5583 167.0043,458.9783 " fill="none" id="Servicio-to-Ruta" style="stroke:#181818;stroke-width:1.0;"/><polygon fill="#181818" points="166.17,464.92,171.3825,456.5636,166.8652,459.9686,163.4603,455.4512,166.17,464.92" style="stroke:#181818;stroke-width:1.0;"/><text fill="#000000" font-family="sans-serif" font-size="13" lengthAdjust="spacing" textLength="41.0186" x="173.5" y="431.0669">ofrece</text></g><!--link Servicio to Incidencia--><g id="link_Servicio_Incidencia"><path codeLine="58" d="M211.83,379.73 C236.7,406.22 268.4024,439.9864 295.2724,468.5964 " fill="none" id="Servicio-to-Incidencia" style="stroke:#181818;stroke-width:1.0;"/><polygon fill="#181818" points="299.38,472.97,296.1344,463.6713,295.957,469.3254,290.303,469.148,299.38,472.97" style="stroke:#181818;stroke-width:1.0;"/><text fill="#000000" font-family="sans-serif" font-size="13" lengthAdjust="spacing" textLength="22.9785" x="260.5" y="431.0669">usa</text></g><!--link Ruta to Paradas--><g id="link_Ruta_Paradas"><path codeLine="64" d="M134.39,562.38 C121.65,586.67 111.9324,605.2123 99.8624,628.2323 " fill="none" id="Ruta-to-Paradas" style="stroke:#181818;stroke-width:1.0;"/><polygon fill="#181818" points="94.29,638.86,100.6188,635.4036,99.8624,628.2323,93.5336,631.6887,94.29,638.86" style="stroke:#181818;stroke-width:1.0;"/><text fill="#000000" font-family="sans-serif" font-size="13" lengthAdjust="spacing" textLength="60.2075" x="117.5" y="605.0669">compone</text></g><!--link Ruta to Horarios--><g id="link_Ruta_Horarios"><path codeLine="71" d="M184.9,562.38 C197.79,586.67 210.4485,610.5395 222.6585,633.5595 " fill="none" id="Ruta-to-Horarios" style="stroke:#181818;stroke-width:1.0;"/><polygon fill="#181818" points="225.47,638.86,224.7865,629.0349,223.1271,634.4429,217.7191,632.7835,225.47,638.86" style="stroke:#181818;stroke-width:1.0;"/><text fill="#000000" font-family="sans-serif" font-size="13" lengthAdjust="spacing" textLength="32.9443" x="209.5" y="605.0669">tiene</text></g><!--link Incidencia to Persona--><g id="link_Incidencia_Persona"><path codeLine="79" d="M243.85,472.91 C206.86,456.74 171.17,440.54 163.5,435 C89.6,381.62 36.04,348.84 56.5,260 C68.81,206.54 70.89,186.96 110.5,149 C163.54,98.16 240.6329,72.23 291.3629,59.41 " fill="none" id="Incidencia-to-Persona" style="stroke:#181818;stroke-width:1.0;stroke-dasharray:7.0,7.0;"/><polygon fill="#181818" points="297.18,57.94,287.4743,56.267,292.3324,59.165,289.4343,64.0232,297.18,57.94" style="stroke:#181818;stroke-width:1.0;"/><text fill="#000000" font-family="sans-serif" font-size="13" lengthAdjust="spacing" textLength="113.2739" x="57.5" y="273.0669">relaci&#243;n indirecta</text></g><!--SRC=[RPF1Rjim38RlUWh1bm83N23906z64Q3T4AoteYrsvsIcrM2BXYG7wxmzqCvxXBxOI2LMR7GtM_pv_IH5cHP2q7Ve0pdGey86cbglFgZ6sLfNwwfIlvKoHnK4-8wUM0R1eejKwm8sXIWcmjMliin2bJFASgk_uhCrGqkwrW5rHow2HhVKF8AtUs153q-W9kDFv9h1HF9Iu8yUFPiR2xL-hmnuXr7gM4iTYp9ocZe3nEIMavj4O2EFFVa8azMfW555swVscg6D9EXJH035Zdm7d_4EdgXWXY4tvIz3ezhBBtE6GDVVo2NIIPh-pqxHsmv3zD2AvXZydna4uiedI1xgg3fW17-pNRMfbA6Ml7JmSqZ4vGncbs5I05K-UZEZCEmzJewxbcBQbAxt6AItE0GnE0RAyjqSRfrfXnVCmQr-G7-mnagG66ioU6OvAjlKieGOZBSzgntxxA1bPaVSmsoCcNTCua0-4Rlx8SBPQX5Qz3W4EE-vXmR22RXMZUNSKmrmM7qKyuILNYUnpB7hoULsaY8Xv3Qi4ri6F5mNMksji1vlPgIj_aAULum45Nd1CoYVZ-gPFsydqcfThwiYdUqIRxL91poP2tsFBHZx-jVn3QJwqsEB7kTTl-I73veNx_3w9-W6P-zcfhsyt6Qrl9et-7y0]--></g></svg>