<svg xmlns="http://www.w3.org/2000/svg" xmlns:xlink="http://www.w3.org/1999/xlink" contentStyleType="text/css" height="546px" preserveAspectRatio="none" style="width:733px;height:546px;background:#FFFFFF;" version="1.1" viewBox="0 0 733 546" width="733px" zoomAndPan="magnify"><defs/><g><!--class Persona--><g id="elem_Persona"><rect codeLine="1" fill="#F1F1F1" height="48" id="Persona" rx="2.5" ry="2.5" style="stroke:#181818;stroke-width:0.5;" width="88.123" x="301.32" y="7"/><ellipse cx="316.32" cy="23" fill="#ADD1B2" rx="11" ry="11" style="stroke:#181818;stroke-width:1.0;"/><path d="M319.2888,28.6406 Q318.7106,28.9375 318.07,29.0781 Q317.4294,29.2344 316.7263,29.2344 Q314.2263,29.2344 312.8981,27.5938 Q311.5856,25.9375 311.5856,22.8125 Q311.5856,19.6875 312.8981,18.0313 Q314.2263,16.375 316.7263,16.375 Q317.4294,16.375 318.07,16.5313 Q318.7263,16.6875 319.2888,16.9844 L319.2888,19.7031 Q318.6638,19.125 318.07,18.8594 Q317.4763,18.5781 316.8513,18.5781 Q315.5075,18.5781 314.82,19.6563 Q314.1325,20.7188 314.1325,22.8125 Q314.1325,24.9063 314.82,25.9844 Q315.5075,27.0469 316.8513,27.0469 Q317.4763,27.0469 318.07,26.7813 Q318.6638,26.5 319.2888,25.9219 L319.2888,28.6406 Z " fill="#000000"/><text fill="#000000" font-family="sans-serif" font-size="14" lengthAdjust="spacing" textLength="56.123" x="330.32" y="27.8467">Persona</text><line style="stroke:#181818;stroke-width:0.5;" x1="302.32" x2="388.443" y1="39" y2="39"/><line style="stroke:#181818;stroke-width:0.5;" x1="302.32" x2="388.443" y1="47" y2="47"/></g><!--class Pasajero--><g id="elem_Pasajero"><rect codeLine="4" fill="#F1F1F1" height="48" id="Pasajero" rx="2.5" ry="2.5" style="stroke:#181818;stroke-width:0.5;" width="91.7188" x="443.32" y="116"/><ellipse cx="458.32" cy="132" fill="#ADD1B2" rx="11" ry="11" style="stroke:#181818;stroke-width:1.0;"/><path d="M461.2888,137.6406 Q460.7106,137.9375 460.07,138.0781 Q459.4294,138.2344 458.7263,138.2344 Q456.2263,138.2344 454.8981,136.5938 Q453.5856,134.9375 453.5856,131.8125 Q453.5856,128.6875 454.8981,127.0313 Q456.2263,125.375 458.7263,125.375 Q459.4294,125.375 460.07,125.5313 Q460.7263,125.6875 461.2888,125.9844 L461.2888,128.7031 Q460.6638,128.125 460.07,127.8594 Q459.4763,127.5781 458.8513,127.5781 Q457.5075,127.5781 456.82,128.6563 Q456.1325,129.7188 456.1325,131.8125 Q456.1325,133.9063 456.82,134.9844 Q457.5075,136.0469 458.8513,136.0469 Q459.4763,136.0469 460.07,135.7813 Q460.6638,135.5 461.2888,134.9219 L461.2888,137.6406 Z " fill="#000000"/><text fill="#000000" font-family="sans-serif" font-size="14" lengthAdjust="spacing" textLength="59.7188" x="472.32" y="136.8467">Pasajero</text><line style="stroke:#181818;stroke-width:0.5;" x1="444.32" x2="534.0387" y1="148" y2="148"/><line style="stroke:#181818;stroke-width:0.5;" x1="444.32" x2="534.0387" y1="156" y2="156"/></g><!--class Vehiculo--><g id="elem_Vehiculo"><rect codeLine="26" fill="#F1F1F1" height="48" id="Vehiculo" rx="2.5" ry="2.5" style="stroke:#181818;stroke-width:0.5;" width="91.9785" x="416.32" y="241"/><ellipse cx="431.32" cy="257" fill="#ADD1B2" rx="11" ry="11" style="stroke:#181818;stroke-width:1.0;"/><path d="M434.2888,262.6406 Q433.7106,262.9375 433.07,263.0781 Q432.4294,263.2344 431.7263,263.2344 Q429.2263,263.2344 427.8981,261.5938 Q426.5856,259.9375 426.5856,256.8125 Q426.5856,253.6875 427.8981,252.0313 Q429.2263,250.375 431.7263,250.375 Q432.4294,250.375 433.07,250.5313 Q433.7263,250.6875 434.2888,250.9844 L434.2888,253.7031 Q433.6638,253.125 433.07,252.8594 Q432.4763,252.5781 431.8513,252.5781 Q430.5075,252.5781 429.82,253.6563 Q429.1325,254.7188 429.1325,256.8125 Q429.1325,258.9063 429.82,259.9844 Q430.5075,261.0469 431.8513,261.0469 Q432.4763,261.0469 433.07,260.7813 Q433.6638,260.5 434.2888,259.9219 L434.2888,262.6406 Z " fill="#000000"/><text fill="#000000" font-family="sans-serif" font-size="14" lengthAdjust="spacing" textLength="59.9785" x="445.32" y="261.8467">Vehiculo</text><line style="stroke:#181818;stroke-width:0.5;" x1="417.32" x2="507.2985" y1="273" y2="273"/><line style="stroke:#181818;stroke-width:0.5;" x1="417.32" x2="507.2985" y1="281" y2="281"/></g><!--class Tarifa--><g id="elem_Tarifa"><rect codeLine="15" fill="#F1F1F1" height="48" id="Tarifa" rx="2.5" ry="2.5" style="stroke:#181818;stroke-width:0.5;" width="72.2842" x="654.32" y="241"/><ellipse cx="669.32" cy="257" fill="#ADD1B2" rx="11" ry="11" style="stroke:#181818;stroke-width:1.0;"/><path d="M672.2888,262.6406 Q671.7106,262.9375 671.07,263.0781 Q670.4294,263.2344 669.7263,263.2344 Q667.2263,263.2344 665.8981,261.5938 Q664.5856,259.9375 664.5856,256.8125 Q664.5856,253.6875 665.8981,252.0313 Q667.2263,250.375 669.7263,250.375 Q670.4294,250.375 671.07,250.5313 Q671.7263,250.6875 672.2888,250.9844 L672.2888,253.7031 Q671.6638,253.125 671.07,252.8594 Q670.4763,252.5781 669.8513,252.5781 Q668.5075,252.5781 667.82,253.6563 Q667.1325,254.7188 667.1325,256.8125 Q667.1325,258.9063 667.82,259.9844 Q668.5075,261.0469 669.8513,261.0469 Q670.4763,261.0469 671.07,260.7813 Q671.6638,260.5 672.2888,259.9219 L672.2888,262.6406 Z " fill="#000000"/><text fill="#000000" font-family="sans-serif" font-size="14" lengthAdjust="spacing" textLength="40.2842" x="683.32" y="261.8467">Tarifa</text><line style="stroke:#181818;stroke-width:0.5;" x1="655.32" x2="725.6042" y1="273" y2="273"/><line style="stroke:#181818;stroke-width:0.5;" x1="655.32" x2="725.6042" y1="281" y2="281"/></g><!--class Conductor--><g id="elem_Conductor"><rect codeLine="10" fill="#F1F1F1" height="48" id="Conductor" rx="2.5" ry="2.5" style="stroke:#181818;stroke-width:0.5;" width="104.4814" x="293.32" y="116"/><ellipse cx="308.32" cy="132" fill="#ADD1B2" rx="11" ry="11" style="stroke:#181818;stroke-width:1.0;"/><path d="M311.2888,137.6406 Q310.7106,137.9375 310.07,138.0781 Q309.4294,138.2344 308.7263,138.2344 Q306.2263,138.2344 304.8981,136.5938 Q303.5856,134.9375 303.5856,131.8125 Q303.5856,128.6875 304.8981,127.0313 Q306.2263,125.375 308.7263,125.375 Q309.4294,125.375 310.07,125.5313 Q310.7263,125.6875 311.2888,125.9844 L311.2888,128.7031 Q310.6638,128.125 310.07,127.8594 Q309.4763,127.5781 308.8513,127.5781 Q307.5075,127.5781 306.82,128.6563 Q306.1325,129.7188 306.1325,131.8125 Q306.1325,133.9063 306.82,134.9844 Q307.5075,136.0469 308.8513,136.0469 Q309.4763,136.0469 310.07,135.7813 Q310.6638,135.5 311.2888,134.9219 L311.2888,137.6406 Z " fill="#000000"/><text fill="#000000" font-family="sans-serif" font-size="14" lengthAdjust="spacing" textLength="72.4814" x="322.32" y="136.8467">Conductor</text><line style="stroke:#181818;stroke-width:0.5;" x1="294.32" x2="396.8014" y1="148" y2="148"/><line style="stroke:#181818;stroke-width:0.5;" x1="294.32" x2="396.8014" y1="156" y2="156"/></g><!--class Incidencia--><g id="elem_Incidencia"><rect codeLine="36" fill="#F1F1F1" height="48" id="Incidencia" rx="2.5" ry="2.5" style="stroke:#181818;stroke-width:0.5;" width="103.1279" x="275.82" y="366"/><ellipse cx="290.82" cy="382" fill="#ADD1B2" rx="11" ry="11" style="stroke:#181818;stroke-width:1.0;"/><path d="M293.7888,387.6406 Q293.2106,387.9375 292.57,388.0781 Q291.9294,388.2344 291.2263,388.2344 Q288.7263,388.2344 287.3981,386.5938 Q286.0856,384.9375 286.0856,381.8125 Q286.0856,378.6875 287.3981,377.0313 Q288.7263,375.375 291.2263,375.375 Q291.9294,375.375 292.57,375.5313 Q293.2263,375.6875 293.7888,375.9844 L293.7888,378.7031 Q293.1638,378.125 292.57,377.8594 Q291.9763,377.5781 291.3513,377.5781 Q290.0075,377.5781 289.32,378.6563 Q288.6325,379.7188 288.6325,381.8125 Q288.6325,383.9063 289.32,384.9844 Q290.0075,386.0469 291.3513,386.0469 Q291.9763,386.0469 292.57,385.7813 Q293.1638,385.5 293.7888,384.9219 L293.7888,387.6406 Z " fill="#000000"/><text fill="#000000" font-family="sans-serif" font-size="14" lengthAdjust="spacing" textLength="71.1279" x="304.82" y="386.8467">Incidencia</text><line style="stroke:#181818;stroke-width:0.5;" x1="276.82" x2="377.9479" y1="398" y2="398"/><line style="stroke:#181818;stroke-width:0.5;" x1="276.82" x2="377.9479" y1="406" y2="406"/></g><!--class FormaDePago--><g id="elem_FormaDePago"><rect codeLine="19" fill="#F1F1F1" height="48" id="FormaDePago" rx="2.5" ry="2.5" style="stroke:#181818;stroke-width:0.5;" width="130.458" x="557.32" y="366"/><ellipse cx="572.32" cy="382" fill="#ADD1B2" rx="11" ry="11" style="stroke:#181818;stroke-width:1.0;"/><path d="M575.2887,387.6406 Q574.7106,387.9375 574.07,388.0781 Q573.4294,388.2344 572.7262,388.2344 Q570.2262,388.2344 568.8981,386.5938 Q567.5856,384.9375 567.5856,381.8125 Q567.5856,378.6875 568.8981,377.0313 Q570.2262,375.375 572.7262,375.375 Q573.4294,375.375 574.07,375.5313 Q574.7262,375.6875 575.2887,375.9844 L575.2887,378.7031 Q574.6637,378.125 574.07,377.8594 Q573.4762,377.5781 572.8512,377.5781 Q571.5075,377.5781 570.82,378.6563 Q570.1325,379.7188 570.1325,381.8125 Q570.1325,383.9063 570.82,384.9844 Q571.5075,386.0469 572.8512,386.0469 Q573.4762,386.0469 574.07,385.7813 Q574.6637,385.5 575.2887,384.9219 L575.2887,387.6406 Z " fill="#000000"/><text fill="#000000" font-family="sans-serif" font-size="14" lengthAdjust="spacing" textLength="98.458" x="586.32" y="386.8467">FormaDePago</text><line style="stroke:#181818;stroke-width:0.5;" x1="558.32" x2="686.778" y1="398" y2="398"/><line style="stroke:#181818;stroke-width:0.5;" x1="558.32" x2="686.778" y1="406" y2="406"/></g><!--class Abono--><g id="elem_Abono"><rect codeLine="22" fill="#F1F1F1" height="48" id="Abono" rx="2.5" ry="2.5" style="stroke:#181818;stroke-width:0.5;" width="76.4678" x="543.32" y="241"/><ellipse cx="558.32" cy="257" fill="#ADD1B2" rx="11" ry="11" style="stroke:#181818;stroke-width:1.0;"/><path d="M561.2887,262.6406 Q560.7106,262.9375 560.07,263.0781 Q559.4294,263.2344 558.7262,263.2344 Q556.2262,263.2344 554.8981,261.5938 Q553.5856,259.9375 553.5856,256.8125 Q553.5856,253.6875 554.8981,252.0313 Q556.2262,250.375 558.7262,250.375 Q559.4294,250.375 560.07,250.5313 Q560.7262,250.6875 561.2887,250.9844 L561.2887,253.7031 Q560.6637,253.125 560.07,252.8594 Q559.4762,252.5781 558.8512,252.5781 Q557.5075,252.5781 556.82,253.6563 Q556.1325,254.7188 556.1325,256.8125 Q556.1325,258.9063 556.82,259.9844 Q557.5075,261.0469 558.8512,261.0469 Q559.4762,261.0469 560.07,260.7813 Q560.6637,260.5 561.2887,259.9219 L561.2887,262.6406 Z " fill="#000000"/><text fill="#000000" font-family="sans-serif" font-size="14" lengthAdjust="spacing" textLength="44.4678" x="572.32" y="261.8467">Abono</text><line style="stroke:#181818;stroke-width:0.5;" x1="544.32" x2="618.7878" y1="273" y2="273"/><line style="stroke:#181818;stroke-width:0.5;" x1="544.32" x2="618.7878" y1="281" y2="281"/></g><!--class Flota--><g id="elem_Flota"><rect codeLine="31" fill="#F1F1F1" height="48" id="Flota" rx="2.5" ry="2.5" style="stroke:#181818;stroke-width:0.5;" width="66.5762" x="168.82" y="116"/><ellipse cx="183.82" cy="132" fill="#ADD1B2" rx="11" ry="11" style="stroke:#181818;stroke-width:1.0;"/><path d="M186.7888,137.6406 Q186.2106,137.9375 185.57,138.0781 Q184.9294,138.2344 184.2263,138.2344 Q181.7263,138.2344 180.3981,136.5938 Q179.0856,134.9375 179.0856,131.8125 Q179.0856,128.6875 180.3981,127.0313 Q181.7263,125.375 184.2263,125.375 Q184.9294,125.375 185.57,125.5313 Q186.2263,125.6875 186.7888,125.9844 L186.7888,128.7031 Q186.1638,128.125 185.57,127.8594 Q184.9763,127.5781 184.3513,127.5781 Q183.0075,127.5781 182.32,128.6563 Q181.6325,129.7188 181.6325,131.8125 Q181.6325,133.9063 182.32,134.9844 Q183.0075,136.0469 184.3513,136.0469 Q184.9763,136.0469 185.57,135.7813 Q186.1638,135.5 186.7888,134.9219 L186.7888,137.6406 Z " fill="#000000"/><text fill="#000000" font-family="sans-serif" font-size="14" lengthAdjust="spacing" textLength="34.5762" x="197.82" y="136.8467">Flota</text><line style="stroke:#181818;stroke-width:0.5;" x1="169.82" x2="234.3962" y1="148" y2="148"/><line style="stroke:#181818;stroke-width:0.5;" x1="169.82" x2="234.3962" y1="156" y2="156"/></g><!--class Servicio--><g id="elem_Servicio"><rect codeLine="39" fill="#F1F1F1" height="48" id="Servicio" rx="2.5" ry="2.5" style="stroke:#181818;stroke-width:0.5;" width="87.583" x="140.32" y="241"/><ellipse cx="155.32" cy="257" fill="#ADD1B2" rx="11" ry="11" style="stroke:#181818;stroke-width:1.0;"/><path d="M158.2888,262.6406 Q157.7106,262.9375 157.07,263.0781 Q156.4294,263.2344 155.7263,263.2344 Q153.2263,263.2344 151.8981,261.5938 Q150.5856,259.9375 150.5856,256.8125 Q150.5856,253.6875 151.8981,252.0313 Q153.2263,250.375 155.7263,250.375 Q156.4294,250.375 157.07,250.5313 Q157.7263,250.6875 158.2888,250.9844 L158.2888,253.7031 Q157.6638,253.125 157.07,252.8594 Q156.4763,252.5781 155.8513,252.5781 Q154.5075,252.5781 153.82,253.6563 Q153.1325,254.7188 153.1325,256.8125 Q153.1325,258.9063 153.82,259.9844 Q154.5075,261.0469 155.8513,261.0469 Q156.4763,261.0469 157.07,260.7813 Q157.6638,260.5 158.2888,259.9219 L158.2888,262.6406 Z " fill="#000000"/><text fill="#000000" font-family="sans-serif" font-size="14" lengthAdjust="spacing" textLength="55.583" x="169.32" y="261.8467">Servicio</text><line style="stroke:#181818;stroke-width:0.5;" x1="141.32" x2="226.903" y1="273" y2="273"/><line style="stroke:#181818;stroke-width:0.5;" x1="141.32" x2="226.903" y1="281" y2="281"/></g><!--class Ruta--><g id="elem_Ruta"><rect codeLine="48" fill="#F1F1F1" height="48" id="Ruta" rx="2.5" ry="2.5" style="stroke:#181818;stroke-width:0.5;" width="64.6689" x="151.82" y="366"/><ellipse cx="166.82" cy="382" fill="#ADD1B2" rx="11" ry="11" style="stroke:#181818;stroke-width:1.0;"/><path d="M169.7888,387.6406 Q169.2106,387.9375 168.57,388.0781 Q167.9294,388.2344 167.2263,388.2344 Q164.7263,388.2344 163.3981,386.5938 Q162.0856,384.9375 162.0856,381.8125 Q162.0856,378.6875 163.3981,377.0313 Q164.7263,375.375 167.2263,375.375 Q167.9294,375.375 168.57,375.5313 Q169.2263,375.6875 169.7888,375.9844 L169.7888,378.7031 Q169.1638,378.125 168.57,377.8594 Q167.9763,377.5781 167.3513,377.5781 Q166.0075,377.5781 165.32,378.6563 Q164.6325,379.7188 164.6325,381.8125 Q164.6325,383.9063 165.32,384.9844 Q166.0075,386.0469 167.3513,386.0469 Q167.9763,386.0469 168.57,385.7813 Q169.1638,385.5 169.7888,384.9219 L169.7888,387.6406 Z " fill="#000000"/><text fill="#000000" font-family="sans-serif" font-size="14" lengthAdjust="spacing" textLength="32.6689" x="180.82" y="386.8467">Ruta</text><line style="stroke:#181818;stroke-width:0.5;" x1="152.82" x2="215.4889" y1="398" y2="398"/><line style="stroke:#181818;stroke-width:0.5;" x1="152.82" x2="215.4889" y1="406" y2="406"/></g><!--class Paradas--><g id="elem_Paradas"><rect codeLine="44" fill="#F1F1F1" height="48" id="Paradas" rx="2.5" ry="2.5" style="stroke:#181818;stroke-width:0.5;" width="88.1162" x="78.32" y="491"/><ellipse cx="93.32" cy="507" fill="#ADD1B2" rx="11" ry="11" style="stroke:#181818;stroke-width:1.0;"/><path d="M96.2888,512.6406 Q95.7106,512.9375 95.07,513.0781 Q94.4294,513.2344 93.7263,513.2344 Q91.2263,513.2344 89.8981,511.5938 Q88.5856,509.9375 88.5856,506.8125 Q88.5856,503.6875 89.8981,502.0313 Q91.2263,500.375 93.7263,500.375 Q94.4294,500.375 95.07,500.5313 Q95.7263,500.6875 96.2888,500.9844 L96.2888,503.7031 Q95.6638,503.125 95.07,502.8594 Q94.4763,502.5781 93.8513,502.5781 Q92.5075,502.5781 91.82,503.6563 Q91.1325,504.7188 91.1325,506.8125 Q91.1325,508.9063 91.82,509.9844 Q92.5075,511.0469 93.8513,511.0469 Q94.4763,511.0469 95.07,510.7813 Q95.6638,510.5 96.2888,509.9219 L96.2888,512.6406 Z " fill="#000000"/><text fill="#000000" font-family="sans-serif" font-size="14" lengthAdjust="spacing" textLength="56.1162" x="107.32" y="511.8467">Paradas</text><line style="stroke:#181818;stroke-width:0.5;" x1="79.32" x2="165.4362" y1="523" y2="523"/><line style="stroke:#181818;stroke-width:0.5;" x1="79.32" x2="165.4362" y1="531" y2="531"/></g><!--class Horarios--><g id="elem_Horarios"><rect codeLine="52" fill="#F1F1F1" height="48" id="Horarios" rx="2.5" ry="2.5" style="stroke:#181818;stroke-width:0.5;" width="90.9326" x="201.82" y="491"/><ellipse cx="216.82" cy="507" fill="#ADD1B2" rx="11" ry="11" style="stroke:#181818;stroke-width:1.0;"/><path d="M219.7888,512.6406 Q219.2106,512.9375 218.57,513.0781 Q217.9294,513.2344 217.2263,513.2344 Q214.7263,513.2344 213.3981,511.5938 Q212.0856,509.9375 212.0856,506.8125 Q212.0856,503.6875 213.3981,502.0313 Q214.7263,500.375 217.2263,500.375 Q217.9294,500.375 218.57,500.5313 Q219.2263,500.6875 219.7888,500.9844 L219.7888,503.7031 Q219.1638,503.125 218.57,502.8594 Q217.9763,502.5781 217.3513,502.5781 Q216.0075,502.5781 215.32,503.6563 Q214.6325,504.7188 214.6325,506.8125 Q214.6325,508.9063 215.32,509.9844 Q216.0075,511.0469 217.3513,511.0469 Q217.9763,511.0469 218.57,510.7813 Q219.1638,510.5 219.7888,509.9219 L219.7888,512.6406 Z " fill="#000000"/><text fill="#000000" font-family="sans-serif" font-size="14" lengthAdjust="spacing" textLength="58.9326" x="230.82" y="511.8467">Horarios</text><line style="stroke:#181818;stroke-width:0.5;" x1="202.82" x2="291.7526" y1="523" y2="523"/><line style="stroke:#181818;stroke-width:0.5;" x1="202.82" x2="291.7526" y1="531" y2="531"/></g><!--reverse link Persona to Pasajero--><g id="link_Persona_Pasajero"><path codeLine="6" d="M391.0194,65.9538 C415.1694,83.8938 434,97.89 458.14,115.83 " fill="none" id="Persona-backto-Pasajero" style="stroke:#181818;stroke-width:1.0;"/><polygon fill="none" points="376.57,55.22,387.4414,70.7703,394.5973,61.1374,376.57,55.22" style="stroke:#181818;stroke-width:1.0;"/></g><!--link Pasajero to Vehiculo--><g id="link_Pasajero_Vehiculo"><path codeLine="7" d="M484.24,164.14 C479.41,186.13 473.4863,213.1495 468.6663,235.1095 " fill="none" id="Pasajero-to-Vehiculo" style="stroke:#181818;stroke-width:1.0;"/><polygon fill="#181818" points="467.38,240.97,473.2165,233.0368,468.4519,236.0863,465.4025,231.3217,467.38,240.97" style="stroke:#181818;stroke-width:1.0;"/><text fill="#000000" font-family="sans-serif" font-size="13" lengthAdjust="spacing" textLength="81.1929" x="479.32" y="207.0669">se monta en</text></g><!--link Pasajero to Tarifa--><g id="link_Pasajero_Tarifa"><path codeLine="8" d="M527.13,164.14 C563.52,186.4 613.0522,216.7182 648.9222,238.6682 " fill="none" id="Pasajero-to-Tarifa" style="stroke:#181818;stroke-width:1.0;"/><polygon fill="#181818" points="654.04,241.8,648.4511,233.6905,649.7751,239.1902,644.2754,240.5142,654.04,241.8" style="stroke:#181818;stroke-width:1.0;"/><text fill="#000000" font-family="sans-serif" font-size="13" lengthAdjust="spacing" textLength="32.4365" x="602.32" y="207.0669">paga</text></g><!--reverse link Persona to Conductor--><g id="link_Persona_Conductor"><path codeLine="12" d="M345.32,73.22 C345.32,91.16 345.32,97.89 345.32,115.83 " fill="none" id="Persona-backto-Conductor" style="stroke:#181818;stroke-width:1.0;"/><polygon fill="none" points="345.32,55.22,339.32,73.22,351.32,73.22,345.32,55.22" style="stroke:#181818;stroke-width:1.0;"/></g><!--link Conductor to Incidencia--><g id="link_Conductor_Incidencia"><path codeLine="13" d="M343.63,164.33 C340.19,211.72 332.8538,312.7457 329.4338,359.9257 " fill="none" id="Conductor-to-Incidencia" style="stroke:#181818;stroke-width:1.0;"/><polygon fill="#181818" points="329,365.91,333.6402,357.2227,329.3615,360.9231,325.6612,356.6444,329,365.91" style="stroke:#181818;stroke-width:1.0;"/><text fill="#000000" font-family="sans-serif" font-size="13" lengthAdjust="spacing" textLength="47.9565" x="339.32" y="269.5669">reporta</text></g><!--link Tarifa to FormaDePago--><g id="link_Tarifa_FormaDePago"><path codeLine="17" d="M677.53,289.14 C665.37,311.13 650.0929,338.759 637.9529,360.719 " fill="none" id="Tarifa-to-FormaDePago" style="stroke:#181818;stroke-width:1.0;"/><polygon fill="#181818" points="635.05,365.97,642.905,360.0287,637.4691,361.5941,635.9036,356.1582,635.05,365.97" style="stroke:#181818;stroke-width:1.0;"/><text fill="#000000" font-family="sans-serif" font-size="13" lengthAdjust="spacing" textLength="23.3403" x="661.32" y="332.0669">con</text></g><!--link Abono to FormaDePago--><g id="link_Abono_FormaDePago"><path codeLine="24" d="M582.38,289.23 C583.57,303.12 586.06,320.93 591.32,336 C594.94,346.37 597.503,351.8677 603.053,360.8377 " fill="none" id="Abono-to-FormaDePago" style="stroke:#181818;stroke-width:1.0;"/><polygon fill="#181818" points="606.21,365.94,604.8761,356.1819,603.5792,361.6881,598.073,360.3912,606.21,365.94" style="stroke:#181818;stroke-width:1.0;"/><text fill="#000000" font-family="sans-serif" font-size="13" lengthAdjust="spacing" textLength="41.4185" x="592.32" y="332.0669">asocia</text></g><!--link Conductor to Vehiculo--><g id="link_Conductor_Vehiculo"><path codeLine="28" d="M366.53,164.16 C379.16,177.87 395.55,195.52 410.32,211 C419.75,220.88 426.0798,227.3951 435.1898,236.6451 " fill="none" id="Conductor-to-Vehiculo" style="stroke:#181818;stroke-width:1.0;"/><polygon fill="#181818" points="439.4,240.92,435.9347,231.7009,435.8915,237.3576,430.2348,237.3145,439.4,240.92" style="stroke:#181818;stroke-width:1.0;"/><text fill="#000000" font-family="sans-serif" font-size="13" lengthAdjust="spacing" textLength="54.9771" x="411.32" y="207.0669">conduce</text></g><!--link Vehiculo to Incidencia--><g id="link_Vehiculo_Incidencia"><path codeLine="29" d="M436.93,289.14 C412.79,311.13 381.135,339.9688 357.035,361.9288 " fill="none" id="Vehiculo-to-Incidencia" style="stroke:#181818;stroke-width:1.0;"/><polygon fill="#181818" points="352.6,365.97,361.9466,362.8649,356.2958,362.6024,356.5584,356.9516,352.6,365.97" style="stroke:#181818;stroke-width:1.0;"/><text fill="#000000" font-family="sans-serif" font-size="13" lengthAdjust="spacing" textLength="32.9316" x="404.32" y="332.0669">sufre</text></g><!--link Flota to Vehiculo--><g id="link_Flota_Vehiculo"><path codeLine="33" d="M236.07,158.83 C263.84,173.33 304.34,194.08 340.32,211 C365.19,222.7 382.2616,230.2633 405.2216,240.0533 " fill="none" id="Flota-to-Vehiculo" style="stroke:#181818;stroke-width:1.0;"/><polygon fill="#181818" points="416.26,244.76,412.3097,238.7272,405.2216,240.0533,409.1719,246.0861,416.26,244.76" style="stroke:#181818;stroke-width:1.0;"/><text fill="#000000" font-family="sans-serif" font-size="13" lengthAdjust="spacing" textLength="46.541" x="341.32" y="207.0669">incluye</text></g><!--link Flota to Servicio--><g id="link_Flota_Servicio"><path codeLine="34" d="M189.33,164.01 C184.91,173.06 180.54,183.73 178.32,194 C175,209.38 175.5385,221.1159 177.8885,234.8559 " fill="none" id="Flota-to-Servicio" style="stroke:#181818;stroke-width:1.0;"/><polygon fill="#181818" points="178.9,240.77,181.3255,231.2245,178.0571,235.8416,173.44,232.5732,178.9,240.77" style="stroke:#181818;stroke-width:1.0;"/><text fill="#000000" font-family="sans-serif" font-size="13" lengthAdjust="spacing" textLength="41.0186" x="179.32" y="207.0669">ofrece</text></g><!--link Servicio to Ruta--><g id="link_Servicio_Ruta"><path codeLine="41" d="M184.32,289.14 C184.32,311.13 184.32,338.01 184.32,359.97 " fill="none" id="Servicio-to-Ruta" style="stroke:#181818;stroke-width:1.0;"/><polygon fill="#181818" points="184.32,365.97,188.32,356.97,184.32,360.97,180.32,356.97,184.32,365.97" style="stroke:#181818;stroke-width:1.0;"/><text fill="#000000" font-family="sans-serif" font-size="13" lengthAdjust="spacing" textLength="41.0186" x="185.32" y="332.0669">ofrece</text></g><!--link Servicio to Incidencia--><g id="link_Servicio_Incidencia"><path codeLine="42" d="M211.22,289.14 C236.78,311.13 270.472,340.0965 295.992,362.0565 " fill="none" id="Servicio-to-Incidencia" style="stroke:#181818;stroke-width:1.0;"/><polygon fill="#181818" points="300.54,365.97,296.3271,357.0677,296.75,362.7087,291.109,363.1317,300.54,365.97" style="stroke:#181818;stroke-width:1.0;"/><text fill="#000000" font-family="sans-serif" font-size="13" lengthAdjust="spacing" textLength="22.9785" x="266.32" y="332.0669">usa</text></g><!--link Ruta to Paradas--><g id="link_Ruta_Paradas"><path codeLine="46" d="M162.73,414.16 C155.41,422.98 147.73,433.45 142.32,444 C134.76,458.73 132.3155,464.9985 129.1755,479.0585 " fill="none" id="Ruta-to-Paradas" style="stroke:#181818;stroke-width:1.0;"/><polygon fill="#181818" points="126.56,490.77,131.7716,485.7861,129.1755,479.0585,123.9639,484.0424,126.56,490.77" style="stroke:#181818;stroke-width:1.0;"/><text fill="#000000" font-family="sans-serif" font-size="13" lengthAdjust="spacing" textLength="60.2075" x="143.32" y="457.0669">compone</text></g><!--link Ruta to Horarios--><g id="link_Ruta_Horarios"><path codeLine="50" d="M196.17,414.14 C207.43,436.13 221.5462,463.669 232.7862,485.629 " fill="none" id="Ruta-to-Horarios" style="stroke:#181818;stroke-width:1.0;"/><polygon fill="#181818" points="235.52,490.97,234.9801,481.136,233.2419,486.5191,227.8587,484.781,235.52,490.97" style="stroke:#181818;stroke-width:1.0;"/><text fill="#000000" font-family="sans-serif" font-size="13" lengthAdjust="spacing" textLength="32.9443" x="221.32" y="457.0669">tiene</text></g><!--link Incidencia to Persona--><g id="link_Incidencia_Persona"><path codeLine="56" d="M275.6,377.44 C183.72,354.11 6,294.85 54.32,194 C100.54,97.53 226.0778,57.2137 295.3978,41.5337 " fill="none" id="Incidencia-to-Persona" style="stroke:#181818;stroke-width:1.0;stroke-dasharray:7.0,7.0;"/><polygon fill="#181818" points="301.25,40.21,291.5893,38.2942,296.3732,41.3131,293.3543,46.097,301.25,40.21" style="stroke:#181818;stroke-width:1.0;"/><text fill="#000000" font-family="sans-serif" font-size="13" lengthAdjust="spacing" textLength="113.2739" x="55.32" y="207.0669">relaci&#243;n indirecta</text></g><!--SRC=[RLB1JiCm3BttAw9Ta92w3q2e4W9DS9i6ucvIRmIrSUMaaoRWWpZp2VinadHrKvLBvVezFpyxrWqufxR8ZYoep-AxAFIG0WSVo9Ho8txxLPQ2548foqgzuhlHVKFgHZbKBLaF2ksSym9izX0O7HnWR7HFjkwr9rvs4gYOI57doMfJO_X4BSQEs8lSfKVKkeInOhKXRk41jt2WLIZIPCU2EPHjuEwDx33-4Fsd0uw2Yx52TX2BvfQpzUW4O26fnKYktpEEefk6_33F49NbTQvch6xw4mfOgMVaez4cWXHqj2XbFR8nXHvpyXE5Ths7IMG6pUps3gQhOQZ19QrK7jsEoJXwsv4LGucHKIlrI1mUZIBN6voOaa_6hzGE6z3c_6l3_BK9_jArUSRSsKdk6fHdE9v_dAenkwgCkrvNmeutjP3_0m00]--></g></svg>