<svg xmlns="http://www.w3.org/2000/svg" xmlns:xlink="http://www.w3.org/1999/xlink" contentStyleType="text/css" height="488px" preserveAspectRatio="none" style="width:2319px;height:488px;background:#FFFFFF;" version="1.1" viewBox="0 0 2319 488" width="2319px" zoomAndPan="magnify"><defs/><g><g id="elem_SistemaDeTransportePublico1"><rect fill="#F1F1F1" height="77.1875" style="stroke:#181818;stroke-width:0.5;" width="273.6729" x="812.5" y="7"/><text fill="#000000" font-family="sans-serif" font-size="14" lengthAdjust="spacing" textLength="211.2988" x="843.687" y="21.9951">SistemaDeTransportePublico1</text><line style="stroke:#181818;stroke-width:0.5;" x1="813.5" x2="1085.1729" y1="27.2969" y2="27.2969"/><text fill="#000000" font-family="sans-serif" font-size="14" lengthAdjust="spacing" textLength="117.5508" x="818.5" y="44.292">flotas = {flota1}</text><text fill="#000000" font-family="sans-serif" font-size="14" lengthAdjust="spacing" textLength="261.6729" x="818.5" y="60.5889">tarifas = {tarifaNormal, tarifaAbono}</text><text fill="#000000" font-family="sans-serif" font-size="14" lengthAdjust="spacing" textLength="162.627" x="818.5" y="76.8857">servicios = {servicio1}</text></g><g id="elem_Flota1"><rect fill="#F1F1F1" height="44.5938" style="stroke:#181818;stroke-width:0.5;" width="260.5137" x="735" y="169"/><text fill="#000000" font-family="sans-serif" font-size="14" lengthAdjust="spacing" textLength="43.4834" x="843.5151" y="183.9951">Flota1</text><line style="stroke:#181818;stroke-width:0.5;" x1="736" x2="994.5137" y1="189.2969" y2="189.2969"/><text fill="#000000" font-family="sans-serif" font-size="14" lengthAdjust="spacing" textLength="248.5137" x="741" y="206.292">vehiculos = {vehiculo1, vehiculo2}</text></g><g id="elem_Vehiculo1"><rect fill="#F1F1F1" height="60.8906" style="stroke:#181818;stroke-width:0.5;" width="169.0967" x="1013" y="299"/><text fill="#000000" font-family="sans-serif" font-size="14" lengthAdjust="spacing" textLength="68.8857" x="1063.1055" y="313.9951">Vehiculo1</text><line style="stroke:#181818;stroke-width:0.5;" x1="1014" x2="1181.0967" y1="319.2969" y2="319.2969"/><text fill="#000000" font-family="sans-serif" font-size="14" lengthAdjust="spacing" textLength="157.0967" x="1019" y="336.292">estado = "En servicio"</text><text fill="#000000" font-family="sans-serif" font-size="14" lengthAdjust="spacing" textLength="110.127" x="1019" y="352.5889">capacidad = 50</text></g><g id="elem_Vehiculo2"><rect fill="#F1F1F1" height="60.8906" style="stroke:#181818;stroke-width:0.5;" width="222.1299" x="755.5" y="299"/><text fill="#000000" font-family="sans-serif" font-size="14" lengthAdjust="spacing" textLength="68.8857" x="832.1221" y="313.9951">Vehiculo2</text><line style="stroke:#181818;stroke-width:0.5;" x1="756.5" x2="976.6299" y1="319.2969" y2="319.2969"/><text fill="#000000" font-family="sans-serif" font-size="14" lengthAdjust="spacing" textLength="210.1299" x="761.5" y="336.292">estado = "En mantenimiento"</text><text fill="#000000" font-family="sans-serif" font-size="14" lengthAdjust="spacing" textLength="110.127" x="761.5" y="352.5889">capacidad = 40</text></g><g id="elem_TarifaNormal"><rect fill="#F1F1F1" height="60.8906" style="stroke:#181818;stroke-width:0.5;" width="166.376" x="1031.5" y="161"/><text fill="#000000" font-family="sans-serif" font-size="14" lengthAdjust="spacing" textLength="91.1846" x="1069.0957" y="175.9951">TarifaNormal</text><line style="stroke:#181818;stroke-width:0.5;" x1="1032.5" x2="1196.876" y1="181.2969" y2="181.2969"/><text fill="#000000" font-family="sans-serif" font-size="14" lengthAdjust="spacing" textLength="154.376" x="1037.5" y="198.292">tipo = "Tarifa normal"</text><text fill="#000000" font-family="sans-serif" font-size="14" lengthAdjust="spacing" textLength="86.3037" x="1037.5" y="214.5889">precio = 2.5</text></g><g id="elem_TarifaAbono"><rect fill="#F1F1F1" height="60.8906" style="stroke:#181818;stroke-width:0.5;" width="181.0186" x="1233" y="161"/><text fill="#000000" font-family="sans-serif" font-size="14" lengthAdjust="spacing" textLength="84.752" x="1281.1333" y="175.9951">TarifaAbono</text><line style="stroke:#181818;stroke-width:0.5;" x1="1234" x2="1413.0186" y1="181.2969" y2="181.2969"/><text fill="#000000" font-family="sans-serif" font-size="14" lengthAdjust="spacing" textLength="169.0186" x="1239" y="198.292">tipo = "Abono mensual"</text><text fill="#000000" font-family="sans-serif" font-size="14" lengthAdjust="spacing" textLength="81.8535" x="1239" y="214.5889">precio = 50</text></g><g id="elem_FormaDePagoTarjeta"><rect fill="#F1F1F1" height="44.5938" style="stroke:#181818;stroke-width:0.5;" width="224.0234" x="1845.5" y="169"/><text fill="#000000" font-family="sans-serif" font-size="14" lengthAdjust="spacing" textLength="147.916" x="1883.5537" y="183.9951">FormaDePagoTarjeta</text><line style="stroke:#181818;stroke-width:0.5;" x1="1846.5" x2="2068.5234" y1="189.2969" y2="189.2969"/><text fill="#000000" font-family="sans-serif" font-size="14" lengthAdjust="spacing" textLength="212.0234" x="1851.5" y="206.292">metodo = "Tarjeta de cr&#233;dito"</text></g><g id="elem_FormaDePagoAbono"><rect fill="#F1F1F1" height="44.5938" style="stroke:#181818;stroke-width:0.5;" width="207.9453" x="2104.5" y="169"/><text fill="#000000" font-family="sans-serif" font-size="14" lengthAdjust="spacing" textLength="142.9258" x="2137.0098" y="183.9951">FormaDePagoAbono</text><line style="stroke:#181818;stroke-width:0.5;" x1="2105.5" x2="2311.4453" y1="189.2969" y2="189.2969"/><text fill="#000000" font-family="sans-serif" font-size="14" lengthAdjust="spacing" textLength="195.9453" x="2110.5" y="206.292">metodo = "Abono mensual"</text></g><g id="elem_AbonoMensual"><rect fill="#F1F1F1" height="60.8906" style="stroke:#181818;stroke-width:0.5;" width="207.9453" x="1602.5" y="161"/><text fill="#000000" font-family="sans-serif" font-size="14" lengthAdjust="spacing" textLength="102.6689" x="1655.1382" y="175.9951">AbonoMensual</text><line style="stroke:#181818;stroke-width:0.5;" x1="1603.5" x2="1809.4453" y1="181.2969" y2="181.2969"/><text fill="#000000" font-family="sans-serif" font-size="14" lengthAdjust="spacing" textLength="195.9453" x="1608.5" y="198.292">metodo = "Abono mensual"</text><text fill="#000000" font-family="sans-serif" font-size="14" lengthAdjust="spacing" textLength="111.3506" x="1608.5" y="214.5889">descuento = 10</text></g><g id="elem_Servicio1"><rect fill="#F1F1F1" height="60.8906" style="stroke:#181818;stroke-width:0.5;" width="141.5068" x="289.5" y="161"/><text fill="#000000" font-family="sans-serif" font-size="14" lengthAdjust="spacing" textLength="64.4902" x="328.0083" y="175.9951">Servicio1</text><line style="stroke:#181818;stroke-width:0.5;" x1="290.5" x2="430.0068" y1="181.2969" y2="181.2969"/><text fill="#000000" font-family="sans-serif" font-size="14" lengthAdjust="spacing" textLength="86.9326" x="295.5" y="198.292">ruta = ruta1</text><text fill="#000000" font-family="sans-serif" font-size="14" lengthAdjust="spacing" textLength="129.5068" x="295.5" y="214.5889">horario = horario1</text></g><g id="elem_Ruta1"><rect fill="#F1F1F1" height="60.8906" style="stroke:#181818;stroke-width:0.5;" width="232.2539" x="205.5" y="299"/><text fill="#000000" font-family="sans-serif" font-size="14" lengthAdjust="spacing" textLength="41.5762" x="300.8389" y="313.9951">Ruta1</text><line style="stroke:#181818;stroke-width:0.5;" x1="206.5" x2="436.7539" y1="319.2969" y2="319.2969"/><text fill="#000000" font-family="sans-serif" font-size="14" lengthAdjust="spacing" textLength="134.5381" x="211.5" y="336.292">nombre = "Ruta A"</text><text fill="#000000" font-family="sans-serif" font-size="14" lengthAdjust="spacing" textLength="220.2539" x="211.5" y="352.5889">paradas = {parada1, parada2}</text></g><g id="elem_Horario1"><rect fill="#F1F1F1" height="60.8906" style="stroke:#181818;stroke-width:0.5;" width="163.2861" x="7" y="299"/><text fill="#000000" font-family="sans-serif" font-size="14" lengthAdjust="spacing" textLength="60.5459" x="58.3701" y="313.9951">Horario1</text><line style="stroke:#181818;stroke-width:0.5;" x1="8" x2="169.2861" y1="319.2969" y2="319.2969"/><text fill="#000000" font-family="sans-serif" font-size="14" lengthAdjust="spacing" textLength="141.0801" x="13" y="336.292">salida = "08:00 AM"</text><text fill="#000000" font-family="sans-serif" font-size="14" lengthAdjust="spacing" textLength="151.2861" x="13" y="352.5889">llegada = "09:00 AM"</text></g><g id="elem_Pasajero1"><rect fill="#F1F1F1" height="44.5938" style="stroke:#181818;stroke-width:0.5;" width="173.5195" x="1508.5" y="23"/><text fill="#000000" font-family="sans-serif" font-size="14" lengthAdjust="spacing" textLength="68.626" x="1560.9468" y="37.9951">Pasajero1</text><line style="stroke:#181818;stroke-width:0.5;" x1="1509.5" x2="1681.0195" y1="43.2969" y2="43.2969"/><text fill="#000000" font-family="sans-serif" font-size="14" lengthAdjust="spacing" textLength="161.5195" x="1514.5" y="60.292">nombre = "Juan P&#233;rez"</text></g><g id="elem_Conductor1"><rect fill="#F1F1F1" height="44.5938" style="stroke:#181818;stroke-width:0.5;" width="193.501" x="502.5" y="169"/><text fill="#000000" font-family="sans-serif" font-size="14" lengthAdjust="spacing" textLength="81.3887" x="558.5562" y="183.9951">Conductor1</text><line style="stroke:#181818;stroke-width:0.5;" x1="503.5" x2="695.001" y1="189.2969" y2="189.2969"/><text fill="#000000" font-family="sans-serif" font-size="14" lengthAdjust="spacing" textLength="181.501" x="508.5" y="206.292">nombre = "Carlos Garc&#237;a"</text></g><g id="elem_Incidencia1"><rect fill="#F1F1F1" height="60.8906" style="stroke:#181818;stroke-width:0.5;" width="247.3955" x="473" y="299"/><text fill="#000000" font-family="sans-serif" font-size="14" lengthAdjust="spacing" textLength="80.0352" x="556.6802" y="313.9951">Incidencia1</text><line style="stroke:#181818;stroke-width:0.5;" x1="474" x2="719.3955" y1="319.2969" y2="319.2969"/><text fill="#000000" font-family="sans-serif" font-size="14" lengthAdjust="spacing" textLength="179.5732" x="479" y="336.292">tipo = "Accidente menor"</text><text fill="#000000" font-family="sans-serif" font-size="14" lengthAdjust="spacing" textLength="235.3955" x="479" y="352.5889">descripcion = "Freno defectuoso"</text></g><g id="elem_Parada1"><rect fill="#F1F1F1" height="44.5938" style="stroke:#181818;stroke-width:0.5;" width="214.501" x="86" y="437"/><text fill="#000000" font-family="sans-serif" font-size="14" lengthAdjust="spacing" textLength="57.7295" x="164.3857" y="451.9951">Parada1</text><line style="stroke:#181818;stroke-width:0.5;" x1="87" x2="299.501" y1="457.2969" y2="457.2969"/><text fill="#000000" font-family="sans-serif" font-size="14" lengthAdjust="spacing" textLength="202.501" x="92" y="474.292">nombre = "Estaci&#243;n Central"</text></g><g id="elem_Parada2"><rect fill="#F1F1F1" height="44.5938" style="stroke:#181818;stroke-width:0.5;" width="228.1045" x="336.5" y="437"/><text fill="#000000" font-family="sans-serif" font-size="14" lengthAdjust="spacing" textLength="57.7295" x="421.6875" y="451.9951">Parada2</text><line style="stroke:#181818;stroke-width:0.5;" x1="337.5" x2="563.6045" y1="457.2969" y2="457.2969"/><text fill="#000000" font-family="sans-serif" font-size="14" lengthAdjust="spacing" textLength="216.1045" x="342.5" y="474.292">nombre = "Parada del Parque"</text></g><!--link SistemaDeTransportePublico1 to Flota1--><g id="link_SistemaDeTransportePublico1_Flota1"><path codeLine="84" d="M927.43,84.33 C911.68,111.33 900.1275,131.1307 887.1175,153.4407 " fill="none" id="SistemaDeTransportePublico1-to-Flota1" style="stroke:#181818;stroke-width:1.0;"/><polygon fill="none" points="878.05,168.99,892.3006,156.4632,881.9344,150.4182,878.05,168.99" style="stroke:#181818;stroke-width:1.0;"/><text fill="#000000" font-family="sans-serif" font-size="13" lengthAdjust="spacing" textLength="46.541" x="910.5" y="127.0669">incluye</text></g><!--link SistemaDeTransportePublico1 to TarifaNormal--><g id="link_SistemaDeTransportePublico1_TarifaNormal"><path codeLine="85" d="M992.85,84.33 C1020.26,108.25 1050.6396,134.7646 1076.0296,156.9246 " fill="none" id="SistemaDeTransportePublico1-to-TarifaNormal" style="stroke:#181818;stroke-width:1.0;"/><polygon fill="#181818" points="1080.55,160.87,1076.3996,151.9384,1076.783,157.5822,1071.1391,157.9656,1080.55,160.87" style="stroke:#181818;stroke-width:1.0;"/><text fill="#000000" font-family="sans-serif" font-size="13" lengthAdjust="spacing" textLength="62.8418" x="1042.5" y="127.0669">establece</text></g><!--link SistemaDeTransportePublico1 to TarifaAbono--><g id="link_SistemaDeTransportePublico1_TarifaAbono"><path codeLine="86" d="M1047.28,84.15 C1109.5,108.1 1183.3408,136.5338 1241.0408,158.7538 " fill="none" id="SistemaDeTransportePublico1-to-TarifaAbono" style="stroke:#181818;stroke-width:1.0;"/><polygon fill="#181818" points="1246.64,160.91,1239.6787,153.9429,1241.974,159.1132,1236.8038,161.4085,1246.64,160.91" style="stroke:#181818;stroke-width:1.0;"/><text fill="#000000" font-family="sans-serif" font-size="13" lengthAdjust="spacing" textLength="62.8418" x="1159.5" y="127.0669">establece</text></g><!--link SistemaDeTransportePublico1 to Servicio1--><g id="link_SistemaDeTransportePublico1_Servicio1"><path codeLine="87" d="M812.15,80.08 C693.17,109.17 531.6284,148.6652 437.6284,171.6452 " fill="none" id="SistemaDeTransportePublico1-to-Servicio1" style="stroke:#181818;stroke-width:1.0;"/><polygon fill="#181818" points="431.8,173.07,441.4924,174.8183,436.657,171.8826,439.5926,167.0472,431.8,173.07" style="stroke:#181818;stroke-width:1.0;"/><text fill="#000000" font-family="sans-serif" font-size="13" lengthAdjust="spacing" textLength="56.4688" x="674.5" y="127.0669">coordina</text></g><!--link Flota1 to Vehiculo1--><g id="link_Flota1_Vehiculo1"><path codeLine="89" d="M902.26,214.05 C941.36,236.97 993.1084,267.3 1036.7484,292.89 " fill="none" id="Flota1-to-Vehiculo1" style="stroke:#181818;stroke-width:1.0;"/><polygon fill="#181818" points="1047.1,298.96,1043.9476,292.4745,1036.7484,292.89,1039.9009,299.3755,1047.1,298.96" style="stroke:#181818;stroke-width:1.0;"/><text fill="#000000" font-family="sans-serif" font-size="13" lengthAdjust="spacing" textLength="46.541" x="995.5" y="265.0669">incluye</text></g><!--link Flota1 to Vehiculo2--><g id="link_Flota1_Vehiculo2"><path codeLine="90" d="M865.66,214.05 C865.83,236.97 866.0009,261.3703 866.1909,286.9603 " fill="none" id="Flota1-to-Vehiculo2" style="stroke:#181818;stroke-width:1.0;"/><polygon fill="#181818" points="866.28,298.96,870.2353,292.9305,866.1909,286.9603,862.2356,292.9899,866.28,298.96" style="stroke:#181818;stroke-width:1.0;"/><text fill="#000000" font-family="sans-serif" font-size="13" lengthAdjust="spacing" textLength="46.541" x="866.5" y="265.0669">incluye</text></g><!--link Servicio1 to Ruta1--><g id="link_Servicio1_Ruta1"><path codeLine="92" d="M352.04,222.01 C345.54,244.67 338.2647,270.0527 331.7347,292.8127 " fill="none" id="Servicio1-to-Ruta1" style="stroke:#181818;stroke-width:1.0;"/><polygon fill="#181818" points="330.08,298.58,336.4069,291.0321,331.4589,293.7739,328.7171,288.8259,330.08,298.58" style="stroke:#181818;stroke-width:1.0;"/><text fill="#000000" font-family="sans-serif" font-size="13" lengthAdjust="spacing" textLength="34.874" x="344.5" y="265.0669">sigue</text></g><!--link Servicio1 to Incidencia1--><g id="link_Servicio1_Incidencia1"><path codeLine="93" d="M411.71,222.01 C451.16,244.74 500.2612,273.0446 539.7812,295.8146 " fill="none" id="Servicio1-to-Incidencia1" style="stroke:#181818;stroke-width:1.0;"/><polygon fill="#181818" points="544.98,298.81,539.1787,290.8511,540.6476,296.3139,535.1849,297.7828,544.98,298.81" style="stroke:#181818;stroke-width:1.0;"/><text fill="#000000" font-family="sans-serif" font-size="13" lengthAdjust="spacing" textLength="47.9565" x="494.5" y="265.0669">reporta</text></g><!--link Servicio1 to Horario1--><g id="link_Servicio1_Horario1"><path codeLine="94" d="M301.48,222.01 C256.01,244.74 198.797,273.3577 153.237,296.1277 " fill="none" id="Servicio1-to-Horario1" style="stroke:#181818;stroke-width:1.0;"/><polygon fill="#181818" points="147.87,298.81,157.7088,298.3645,152.3425,296.5747,154.1323,291.2085,147.87,298.81" style="stroke:#181818;stroke-width:1.0;"/><text fill="#000000" font-family="sans-serif" font-size="13" lengthAdjust="spacing" textLength="32.9443" x="242.5" y="265.0669">tiene</text></g><!--link Ruta1 to Parada1--><g id="link_Ruta1_Parada1"><path codeLine="96" d="M291.81,360.19 C268.33,383.67 240.3326,411.6674 219.2726,432.7274 " fill="none" id="Ruta1-to-Parada1" style="stroke:#181818;stroke-width:1.0;"/><polygon fill="#181818" points="215.03,436.97,224.2224,433.4345,218.5655,433.4345,218.5655,427.7776,215.03,436.97" style="stroke:#181818;stroke-width:1.0;"/><text fill="#000000" font-family="sans-serif" font-size="13" lengthAdjust="spacing" textLength="56.6401" x="262.5" y="403.0669">pasa por</text></g><!--link Ruta1 to Parada2--><g id="link_Ruta1_Parada2"><path codeLine="97" d="M351.42,360.19 C375.09,383.67 403.3213,411.6834 424.5413,432.7434 " fill="none" id="Ruta1-to-Parada2" style="stroke:#181818;stroke-width:1.0;"/><polygon fill="#181818" points="428.8,436.97,425.2297,427.7911,425.2511,433.4479,419.5943,433.4693,428.8,436.97" style="stroke:#181818;stroke-width:1.0;"/><text fill="#000000" font-family="sans-serif" font-size="13" lengthAdjust="spacing" textLength="56.6401" x="399.5" y="403.0669">pasa por</text></g><!--link Pasajero1 to Vehiculo1--><g id="link_Pasajero1_Vehiculo1"><path codeLine="99" d="M1577.59,68.27 C1542.64,110.28 1465.77,200.32 1431.5,222 C1354.34,270.8 1258.8102,297.7389 1188.0502,312.6989 " fill="none" id="Pasajero1-to-Vehiculo1" style="stroke:#181818;stroke-width:1.0;"/><polygon fill="#181818" points="1182.18,313.94,1191.8127,315.9919,1187.0719,312.9058,1190.158,308.1649,1182.18,313.94" style="stroke:#181818;stroke-width:1.0;"/><text fill="#000000" font-family="sans-serif" font-size="13" lengthAdjust="spacing" textLength="81.1929" x="1497.5" y="196.0669">se monta en</text></g><!--link Pasajero1 to TarifaNormal--><g id="link_Pasajero1_TarifaNormal"><path codeLine="100" d="M1508.28,63.45 C1450.69,75.49 1373.9,93.18 1307.5,114 C1265.03,127.32 1224.1444,143.2727 1187.4844,158.6227 " fill="none" id="Pasajero1-to-TarifaNormal" style="stroke:#181818;stroke-width:1.0;"/><polygon fill="#181818" points="1181.95,160.94,1191.7965,161.1536,1186.562,159.0089,1188.7068,153.7744,1181.95,160.94" style="stroke:#181818;stroke-width:1.0;"/><text fill="#000000" font-family="sans-serif" font-size="13" lengthAdjust="spacing" textLength="59.9092" x="1308.5" y="127.0669">paga con</text></g><!--link Pasajero1 to FormaDePagoTarjeta--><g id="link_Pasajero1_FormaDePagoTarjeta"><path codeLine="101" d="M1649.7,68.06 C1718.04,95.24 1829.2749,139.4923 1897.6549,166.6923 " fill="none" id="Pasajero1-to-FormaDePagoTarjeta" style="stroke:#181818;stroke-width:1.0;"/><polygon fill="#181818" points="1903.23,168.91,1896.3458,161.8668,1898.5841,167.062,1893.3889,169.3003,1903.23,168.91" style="stroke:#181818;stroke-width:1.0;"/><text fill="#000000" font-family="sans-serif" font-size="13" lengthAdjust="spacing" textLength="22.9785" x="1798.5" y="127.0669">usa</text></g><!--link Pasajero1 to TarifaAbono--><g id="link_Pasajero1_TarifaAbono"><path codeLine="103" d="M1508.18,66.59 C1472.16,77.27 1431.08,92.7 1397.5,114 C1378,126.37 1363.7957,140.3367 1350.3757,156.0567 " fill="none" id="Pasajero1-to-TarifaAbono" style="stroke:#181818;stroke-width:1.0;"/><polygon fill="#181818" points="1346.48,160.62,1355.3657,156.3721,1349.7264,156.8172,1349.2813,151.1779,1346.48,160.62" style="stroke:#181818;stroke-width:1.0;"/><text fill="#000000" font-family="sans-serif" font-size="13" lengthAdjust="spacing" textLength="59.9092" x="1398.5" y="127.0669">paga con</text></g><!--link Pasajero1 to FormaDePagoAbono--><g id="link_Pasajero1_FormaDePagoAbono"><path codeLine="104" d="M1682.66,66.49 C1781.05,89.13 1945.88,127.26 2087.5,161 C2098.23,163.56 2103.6485,164.8479 2114.7985,167.5479 " fill="none" id="Pasajero1-to-FormaDePagoAbono" style="stroke:#181818;stroke-width:1.0;"/><polygon fill="#181818" points="2120.63,168.96,2112.8242,162.9542,2115.7704,167.7832,2110.9414,170.7295,2120.63,168.96" style="stroke:#181818;stroke-width:1.0;"/><text fill="#000000" font-family="sans-serif" font-size="13" lengthAdjust="spacing" textLength="22.9785" x="1952.5" y="127.0669">usa</text></g><!--link Pasajero1 to AbonoMensual--><g id="link_Pasajero1_AbonoMensual"><path codeLine="105" d="M1612.12,68.06 C1631.11,92.69 1658.637,128.4079 1679.927,156.0279 " fill="none" id="Pasajero1-to-AbonoMensual" style="stroke:#181818;stroke-width:1.0;"/><polygon fill="#181818" points="1683.59,160.78,1681.2636,151.2099,1680.5375,156.8199,1674.9274,156.0939,1683.59,160.78" style="stroke:#181818;stroke-width:1.0;"/><text fill="#000000" font-family="sans-serif" font-size="13" lengthAdjust="spacing" textLength="49.3276" x="1658.5" y="127.0669">compra</text></g><!--link Conductor1 to Vehiculo1--><g id="link_Conductor1_Vehiculo1"><path codeLine="107" d="M647.96,214.13 C688.3,231.34 747.65,254.81 801.5,269 C885.87,291.24 910.31,280.17 995.5,299 C1001.17,300.25 1001.1739,300.166 1007.0139,301.646 " fill="none" id="Conductor1-to-Vehiculo1" style="stroke:#181818;stroke-width:1.0;"/><polygon fill="#181818" points="1012.83,303.12,1005.0884,297.0316,1007.9832,301.8917,1003.1232,304.7865,1012.83,303.12" style="stroke:#181818;stroke-width:1.0;"/><text fill="#000000" font-family="sans-serif" font-size="13" lengthAdjust="spacing" textLength="54.9771" x="802.5" y="265.0669">conduce</text></g><!--link Conductor1 to Incidencia1--><g id="link_Conductor1_Incidencia1"><path codeLine="108" d="M599.02,214.05 C598.52,236.97 597.8536,267.3715 597.2836,292.9615 " fill="none" id="Conductor1-to-Incidencia1" style="stroke:#181818;stroke-width:1.0;"/><polygon fill="#181818" points="597.15,298.96,601.3494,290.0513,597.2613,293.9612,593.3514,289.8732,597.15,298.96" style="stroke:#181818;stroke-width:1.0;"/><text fill="#000000" font-family="sans-serif" font-size="13" lengthAdjust="spacing" textLength="47.9565" x="599.5" y="265.0669">reporta</text></g><!--SRC=[bLJBRjim4BphAnQv12ZYmZOQe1MG044UVG0fZ2JeVKrj70OIgP9IW3RD1-NGKp_1FvObgGSj2KthWqtlx0oNo-7kmvd4ZS428IFGwtkgj8KrMimqaAsC51KMf2e2Ka0vP56woD6IXTBeKXiXjM9IaZWHKS6rj1KLU4Ot1fNbX8fMzJgNGY_WCG7-tEQwGWj7yEXNYoSVhT38sn0Eow_Q59WVDC39MYiTCYsP1ydR-jps3wiyTJLSUDrckmUwawBEGthxPt7GnPSnyrkBDsHkXUl84UoTgsxZFGy9B57833D63-SJ6iifZGAvfqeMadix8VGk5hg9-j1eLRBqIW42vR4WKnhYsXXSlZqSYVZs3JH2Z2_PrYEDdGDTk5tEQ8KRpMfi5MoK2dPDrjRZuyuTPlkSINUuIOMuafu_gALdUk0on5zZEJ0ZAshNMyONyI6kMwCqAgRcSe_ypy87xhJXLZbUirf4xAkwDvJInTgGszz5uQHf7HhCWd_3aYqM5Zi6-zHeDreMSxvvfpL_dyxdS78PrFASDjW07rgWLrdnGxqdeySbVQbHmMhxREXdJ3ZLAgj5fSsOSOh6FOwFQCJsDyQapufjIVpL7RspZl08JmTklZPzwuqitK1mEHU68GxUibIjhTwjttTeLCivFnKXjtyKdBAwsRL282r7f13ddNANyhqcJzg7AyhH5SEZoebrOov9_ZQZPhDVn-q0IK4gaTS_w1N6yUvJJVsJN-Sa_fKOZFm_lDxEAGYjJIOL9abJzsps9ffa_Iacu6K49xseso9uFWKhDpKDiDWQAHXo1U8WfxDwohuXnVf1qM6j0L9-8nQ1wIDm6OD9xtYN4H_EiWcrueT8Qf0rk9GIDyYz6cPDJBSKQel9f5fxKw-BjPbEQZSfdcdkzehIy6xH4nqUKNY8XYcJb_02]--></g></svg>