<svg xmlns="http://www.w3.org/2000/svg" xmlns:xlink="http://www.w3.org/1999/xlink" contentStyleType="text/css" height="671px" preserveAspectRatio="none" style="width:946px;height:671px;background:#FFFFFF;" version="1.1" viewBox="0 0 946 671" width="946px" zoomAndPan="magnify"><defs/><g><!--class SistemaDeTransportePublico--><g id="elem_SistemaDeTransportePublico"><rect codeLine="3" fill="#F1F1F1" height="48" id="SistemaDeTransportePublico" rx="2.5" ry="2.5" style="stroke:#181818;stroke-width:0.5;" width="234.3916" x="420.38" y="7"/><ellipse cx="435.38" cy="23" fill="#ADD1B2" rx="11" ry="11" style="stroke:#181818;stroke-width:1.0;"/><path d="M438.3488,28.6406 Q437.7706,28.9375 437.13,29.0781 Q436.4894,29.2344 435.7863,29.2344 Q433.2863,29.2344 431.9581,27.5938 Q430.6456,25.9375 430.6456,22.8125 Q430.6456,19.6875 431.9581,18.0313 Q433.2863,16.375 435.7863,16.375 Q436.4894,16.375 437.13,16.5313 Q437.7863,16.6875 438.3488,16.9844 L438.3488,19.7031 Q437.7238,19.125 437.13,18.8594 Q436.5363,18.5781 435.9113,18.5781 Q434.5675,18.5781 433.88,19.6563 Q433.1925,20.7188 433.1925,22.8125 Q433.1925,24.9063 433.88,25.9844 Q434.5675,27.0469 435.9113,27.0469 Q436.5363,27.0469 437.13,26.7813 Q437.7238,26.5 438.3488,25.9219 L438.3488,28.6406 Z " fill="#000000"/><text fill="#000000" font-family="sans-serif" font-size="14" lengthAdjust="spacing" textLength="202.3916" x="449.38" y="27.8467">SistemaDeTransportePublico</text><line style="stroke:#181818;stroke-width:0.5;" x1="421.38" x2="653.7716" y1="39" y2="39"/><line style="stroke:#181818;stroke-width:0.5;" x1="421.38" x2="653.7716" y1="47" y2="47"/></g><!--class Persona--><g id="elem_Persona"><rect codeLine="6" fill="#F1F1F1" height="48" id="Persona" rx="2.5" ry="2.5" style="stroke:#181818;stroke-width:0.5;" width="88.123" x="125.38" y="132"/><ellipse cx="140.38" cy="148" fill="#ADD1B2" rx="11" ry="11" style="stroke:#181818;stroke-width:1.0;"/><path d="M143.3488,153.6406 Q142.7706,153.9375 142.13,154.0781 Q141.4894,154.2344 140.7863,154.2344 Q138.2863,154.2344 136.9581,152.5938 Q135.6456,150.9375 135.6456,147.8125 Q135.6456,144.6875 136.9581,143.0313 Q138.2863,141.375 140.7863,141.375 Q141.4894,141.375 142.13,141.5313 Q142.7863,141.6875 143.3488,141.9844 L143.3488,144.7031 Q142.7238,144.125 142.13,143.8594 Q141.5363,143.5781 140.9113,143.5781 Q139.5675,143.5781 138.88,144.6563 Q138.1925,145.7188 138.1925,147.8125 Q138.1925,149.9063 138.88,150.9844 Q139.5675,152.0469 140.9113,152.0469 Q141.5363,152.0469 142.13,151.7813 Q142.7238,151.5 143.3488,150.9219 L143.3488,153.6406 Z " fill="#000000"/><text fill="#000000" font-family="sans-serif" font-size="14" lengthAdjust="spacing" textLength="56.123" x="154.38" y="152.8467">Persona</text><line style="stroke:#181818;stroke-width:0.5;" x1="126.38" x2="212.503" y1="164" y2="164"/><line style="stroke:#181818;stroke-width:0.5;" x1="126.38" x2="212.503" y1="172" y2="172"/></g><!--class Pasajero--><g id="elem_Pasajero"><rect codeLine="9" fill="#F1F1F1" height="48" id="Pasajero" rx="2.5" ry="2.5" style="stroke:#181818;stroke-width:0.5;" width="91.7188" x="237.38" y="257"/><ellipse cx="252.38" cy="273" fill="#ADD1B2" rx="11" ry="11" style="stroke:#181818;stroke-width:1.0;"/><path d="M255.3488,278.6406 Q254.7706,278.9375 254.13,279.0781 Q253.4894,279.2344 252.7863,279.2344 Q250.2863,279.2344 248.9581,277.5938 Q247.6456,275.9375 247.6456,272.8125 Q247.6456,269.6875 248.9581,268.0313 Q250.2863,266.375 252.7863,266.375 Q253.4894,266.375 254.13,266.5313 Q254.7863,266.6875 255.3488,266.9844 L255.3488,269.7031 Q254.7238,269.125 254.13,268.8594 Q253.5363,268.5781 252.9113,268.5781 Q251.5675,268.5781 250.88,269.6563 Q250.1925,270.7188 250.1925,272.8125 Q250.1925,274.9063 250.88,275.9844 Q251.5675,277.0469 252.9113,277.0469 Q253.5363,277.0469 254.13,276.7813 Q254.7238,276.5 255.3488,275.9219 L255.3488,278.6406 Z " fill="#000000"/><text fill="#000000" font-family="sans-serif" font-size="14" lengthAdjust="spacing" textLength="59.7188" x="266.38" y="277.8467">Pasajero</text><line style="stroke:#181818;stroke-width:0.5;" x1="238.38" x2="328.0988" y1="289" y2="289"/><line style="stroke:#181818;stroke-width:0.5;" x1="238.38" x2="328.0988" y1="297" y2="297"/></g><!--class Vehiculo--><g id="elem_Vehiculo"><rect codeLine="28" fill="#F1F1F1" height="48" id="Vehiculo" rx="2.5" ry="2.5" style="stroke:#181818;stroke-width:0.5;" width="91.9785" x="218.38" y="382"/><ellipse cx="233.38" cy="398" fill="#ADD1B2" rx="11" ry="11" style="stroke:#181818;stroke-width:1.0;"/><path d="M236.3488,403.6406 Q235.7706,403.9375 235.13,404.0781 Q234.4894,404.2344 233.7863,404.2344 Q231.2863,404.2344 229.9581,402.5938 Q228.6456,400.9375 228.6456,397.8125 Q228.6456,394.6875 229.9581,393.0313 Q231.2863,391.375 233.7863,391.375 Q234.4894,391.375 235.13,391.5313 Q235.7863,391.6875 236.3488,391.9844 L236.3488,394.7031 Q235.7238,394.125 235.13,393.8594 Q234.5363,393.5781 233.9113,393.5781 Q232.5675,393.5781 231.88,394.6563 Q231.1925,395.7188 231.1925,397.8125 Q231.1925,399.9063 231.88,400.9844 Q232.5675,402.0469 233.9113,402.0469 Q234.5363,402.0469 235.13,401.7813 Q235.7238,401.5 236.3488,400.9219 L236.3488,403.6406 Z " fill="#000000"/><text fill="#000000" font-family="sans-serif" font-size="14" lengthAdjust="spacing" textLength="59.9785" x="247.38" y="402.8467">Vehiculo</text><line style="stroke:#181818;stroke-width:0.5;" x1="219.38" x2="309.3585" y1="414" y2="414"/><line style="stroke:#181818;stroke-width:0.5;" x1="219.38" x2="309.3585" y1="422" y2="422"/></g><!--class Tarifa--><g id="elem_Tarifa"><rect codeLine="21" fill="#F1F1F1" height="48" id="Tarifa" rx="2.5" ry="2.5" style="stroke:#181818;stroke-width:0.5;" width="72.2842" x="546.38" y="382"/><ellipse cx="561.38" cy="398" fill="#ADD1B2" rx="11" ry="11" style="stroke:#181818;stroke-width:1.0;"/><path d="M564.3488,403.6406 Q563.7706,403.9375 563.13,404.0781 Q562.4894,404.2344 561.7863,404.2344 Q559.2863,404.2344 557.9581,402.5938 Q556.6456,400.9375 556.6456,397.8125 Q556.6456,394.6875 557.9581,393.0313 Q559.2863,391.375 561.7863,391.375 Q562.4894,391.375 563.13,391.5313 Q563.7863,391.6875 564.3488,391.9844 L564.3488,394.7031 Q563.7238,394.125 563.13,393.8594 Q562.5363,393.5781 561.9113,393.5781 Q560.5675,393.5781 559.88,394.6563 Q559.1925,395.7188 559.1925,397.8125 Q559.1925,399.9063 559.88,400.9844 Q560.5675,402.0469 561.9113,402.0469 Q562.5363,402.0469 563.13,401.7813 Q563.7238,401.5 564.3488,400.9219 L564.3488,403.6406 Z " fill="#000000"/><text fill="#000000" font-family="sans-serif" font-size="14" lengthAdjust="spacing" textLength="40.2842" x="575.38" y="402.8467">Tarifa</text><line style="stroke:#181818;stroke-width:0.5;" x1="547.38" x2="617.6642" y1="414" y2="414"/><line style="stroke:#181818;stroke-width:0.5;" x1="547.38" x2="617.6642" y1="422" y2="422"/></g><!--class Conductor--><g id="elem_Conductor"><rect codeLine="15" fill="#F1F1F1" height="48" id="Conductor" rx="2.5" ry="2.5" style="stroke:#181818;stroke-width:0.5;" width="104.4814" x="98.38" y="257"/><ellipse cx="113.38" cy="273" fill="#ADD1B2" rx="11" ry="11" style="stroke:#181818;stroke-width:1.0;"/><path d="M116.3488,278.6406 Q115.7706,278.9375 115.13,279.0781 Q114.4894,279.2344 113.7863,279.2344 Q111.2863,279.2344 109.9581,277.5938 Q108.6456,275.9375 108.6456,272.8125 Q108.6456,269.6875 109.9581,268.0313 Q111.2863,266.375 113.7863,266.375 Q114.4894,266.375 115.13,266.5313 Q115.7863,266.6875 116.3488,266.9844 L116.3488,269.7031 Q115.7238,269.125 115.13,268.8594 Q114.5363,268.5781 113.9113,268.5781 Q112.5675,268.5781 111.88,269.6563 Q111.1925,270.7188 111.1925,272.8125 Q111.1925,274.9063 111.88,275.9844 Q112.5675,277.0469 113.9113,277.0469 Q114.5363,277.0469 115.13,276.7813 Q115.7238,276.5 116.3488,275.9219 L116.3488,278.6406 Z " fill="#000000"/><text fill="#000000" font-family="sans-serif" font-size="14" lengthAdjust="spacing" textLength="72.4814" x="127.38" y="277.8467">Conductor</text><line style="stroke:#181818;stroke-width:0.5;" x1="99.38" x2="201.8614" y1="289" y2="289"/><line style="stroke:#181818;stroke-width:0.5;" x1="99.38" x2="201.8614" y1="297" y2="297"/></g><!--class Incidencia--><g id="elem_Incidencia"><rect codeLine="37" fill="#F1F1F1" height="48" id="Incidencia" rx="2.5" ry="2.5" style="stroke:#181818;stroke-width:0.5;" width="103.1279" x="103.88" y="507"/><ellipse cx="118.88" cy="523" fill="#ADD1B2" rx="11" ry="11" style="stroke:#181818;stroke-width:1.0;"/><path d="M121.8488,528.6406 Q121.2706,528.9375 120.63,529.0781 Q119.9894,529.2344 119.2863,529.2344 Q116.7863,529.2344 115.4581,527.5938 Q114.1456,525.9375 114.1456,522.8125 Q114.1456,519.6875 115.4581,518.0313 Q116.7863,516.375 119.2863,516.375 Q119.9894,516.375 120.63,516.5313 Q121.2863,516.6875 121.8488,516.9844 L121.8488,519.7031 Q121.2238,519.125 120.63,518.8594 Q120.0363,518.5781 119.4113,518.5781 Q118.0675,518.5781 117.38,519.6563 Q116.6925,520.7188 116.6925,522.8125 Q116.6925,524.9063 117.38,525.9844 Q118.0675,527.0469 119.4113,527.0469 Q120.0363,527.0469 120.63,526.7813 Q121.2238,526.5 121.8488,525.9219 L121.8488,528.6406 Z " fill="#000000"/><text fill="#000000" font-family="sans-serif" font-size="14" lengthAdjust="spacing" textLength="71.1279" x="132.88" y="527.8467">Incidencia</text><line style="stroke:#181818;stroke-width:0.5;" x1="104.88" x2="206.0079" y1="539" y2="539"/><line style="stroke:#181818;stroke-width:0.5;" x1="104.88" x2="206.0079" y1="547" y2="547"/></g><!--class FormaDePago--><g id="elem_FormaDePago"><rect codeLine="25" fill="#F1F1F1" height="48" id="FormaDePago" rx="2.5" ry="2.5" style="stroke:#181818;stroke-width:0.5;" width="130.458" x="664.38" y="507"/><ellipse cx="679.38" cy="523" fill="#ADD1B2" rx="11" ry="11" style="stroke:#181818;stroke-width:1.0;"/><path d="M682.3488,528.6406 Q681.7706,528.9375 681.13,529.0781 Q680.4894,529.2344 679.7863,529.2344 Q677.2863,529.2344 675.9581,527.5938 Q674.6456,525.9375 674.6456,522.8125 Q674.6456,519.6875 675.9581,518.0313 Q677.2863,516.375 679.7863,516.375 Q680.4894,516.375 681.13,516.5313 Q681.7863,516.6875 682.3488,516.9844 L682.3488,519.7031 Q681.7238,519.125 681.13,518.8594 Q680.5363,518.5781 679.9113,518.5781 Q678.5675,518.5781 677.88,519.6563 Q677.1925,520.7188 677.1925,522.8125 Q677.1925,524.9063 677.88,525.9844 Q678.5675,527.0469 679.9113,527.0469 Q680.5363,527.0469 681.13,526.7813 Q681.7238,526.5 682.3488,525.9219 L682.3488,528.6406 Z " fill="#000000"/><text fill="#000000" font-family="sans-serif" font-size="14" lengthAdjust="spacing" textLength="98.458" x="693.38" y="527.8467">FormaDePago</text><line style="stroke:#181818;stroke-width:0.5;" x1="665.38" x2="793.838" y1="539" y2="539"/><line style="stroke:#181818;stroke-width:0.5;" x1="665.38" x2="793.838" y1="547" y2="547"/></g><!--class Flota--><g id="elem_Flota"><rect codeLine="32" fill="#F1F1F1" height="48" id="Flota" rx="2.5" ry="2.5" style="stroke:#181818;stroke-width:0.5;" width="66.5762" x="449.88" y="132"/><ellipse cx="464.88" cy="148" fill="#ADD1B2" rx="11" ry="11" style="stroke:#181818;stroke-width:1.0;"/><path d="M467.8488,153.6406 Q467.2706,153.9375 466.63,154.0781 Q465.9894,154.2344 465.2863,154.2344 Q462.7863,154.2344 461.4581,152.5938 Q460.1456,150.9375 460.1456,147.8125 Q460.1456,144.6875 461.4581,143.0313 Q462.7863,141.375 465.2863,141.375 Q465.9894,141.375 466.63,141.5313 Q467.2863,141.6875 467.8488,141.9844 L467.8488,144.7031 Q467.2238,144.125 466.63,143.8594 Q466.0363,143.5781 465.4113,143.5781 Q464.0675,143.5781 463.38,144.6563 Q462.6925,145.7188 462.6925,147.8125 Q462.6925,149.9063 463.38,150.9844 Q464.0675,152.0469 465.4113,152.0469 Q466.0363,152.0469 466.63,151.7813 Q467.2238,151.5 467.8488,150.9219 L467.8488,153.6406 Z " fill="#000000"/><text fill="#000000" font-family="sans-serif" font-size="14" lengthAdjust="spacing" textLength="34.5762" x="478.88" y="152.8467">Flota</text><line style="stroke:#181818;stroke-width:0.5;" x1="450.88" x2="515.4562" y1="164" y2="164"/><line style="stroke:#181818;stroke-width:0.5;" x1="450.88" x2="515.4562" y1="172" y2="172"/></g><!--class Servicio--><g id="elem_Servicio"><rect codeLine="40" fill="#F1F1F1" height="48" id="Servicio" rx="2.5" ry="2.5" style="stroke:#181818;stroke-width:0.5;" width="87.583" x="661.38" y="132"/><ellipse cx="676.38" cy="148" fill="#ADD1B2" rx="11" ry="11" style="stroke:#181818;stroke-width:1.0;"/><path d="M679.3488,153.6406 Q678.7706,153.9375 678.13,154.0781 Q677.4894,154.2344 676.7863,154.2344 Q674.2863,154.2344 672.9581,152.5938 Q671.6456,150.9375 671.6456,147.8125 Q671.6456,144.6875 672.9581,143.0313 Q674.2863,141.375 676.7863,141.375 Q677.4894,141.375 678.13,141.5313 Q678.7863,141.6875 679.3488,141.9844 L679.3488,144.7031 Q678.7238,144.125 678.13,143.8594 Q677.5363,143.5781 676.9113,143.5781 Q675.5675,143.5781 674.88,144.6563 Q674.1925,145.7188 674.1925,147.8125 Q674.1925,149.9063 674.88,150.9844 Q675.5675,152.0469 676.9113,152.0469 Q677.5363,152.0469 678.13,151.7813 Q678.7238,151.5 679.3488,150.9219 L679.3488,153.6406 Z " fill="#000000"/><text fill="#000000" font-family="sans-serif" font-size="14" lengthAdjust="spacing" textLength="55.583" x="690.38" y="152.8467">Servicio</text><line style="stroke:#181818;stroke-width:0.5;" x1="662.38" x2="747.963" y1="164" y2="164"/><line style="stroke:#181818;stroke-width:0.5;" x1="662.38" x2="747.963" y1="172" y2="172"/></g><!--class Ruta--><g id="elem_Ruta"><rect codeLine="49" fill="#F1F1F1" height="48" id="Ruta" rx="2.5" ry="2.5" style="stroke:#181818;stroke-width:0.5;" width="64.6689" x="737.88" y="257"/><ellipse cx="752.88" cy="273" fill="#ADD1B2" rx="11" ry="11" style="stroke:#181818;stroke-width:1.0;"/><path d="M755.8488,278.6406 Q755.2706,278.9375 754.63,279.0781 Q753.9894,279.2344 753.2863,279.2344 Q750.7863,279.2344 749.4581,277.5938 Q748.1456,275.9375 748.1456,272.8125 Q748.1456,269.6875 749.4581,268.0313 Q750.7863,266.375 753.2863,266.375 Q753.9894,266.375 754.63,266.5313 Q755.2863,266.6875 755.8488,266.9844 L755.8488,269.7031 Q755.2238,269.125 754.63,268.8594 Q754.0363,268.5781 753.4113,268.5781 Q752.0675,268.5781 751.38,269.6563 Q750.6925,270.7188 750.6925,272.8125 Q750.6925,274.9063 751.38,275.9844 Q752.0675,277.0469 753.4113,277.0469 Q754.0363,277.0469 754.63,276.7813 Q755.2238,276.5 755.8488,275.9219 L755.8488,278.6406 Z " fill="#000000"/><text fill="#000000" font-family="sans-serif" font-size="14" lengthAdjust="spacing" textLength="32.6689" x="766.88" y="277.8467">Ruta</text><line style="stroke:#181818;stroke-width:0.5;" x1="738.88" x2="801.5489" y1="289" y2="289"/><line style="stroke:#181818;stroke-width:0.5;" x1="738.88" x2="801.5489" y1="297" y2="297"/></g><!--class Paradas--><g id="elem_Paradas"><rect codeLine="46" fill="#F1F1F1" height="48" id="Paradas" rx="2.5" ry="2.5" style="stroke:#181818;stroke-width:0.5;" width="88.1162" x="851.38" y="382"/><ellipse cx="866.38" cy="398" fill="#ADD1B2" rx="11" ry="11" style="stroke:#181818;stroke-width:1.0;"/><path d="M869.3488,403.6406 Q868.7706,403.9375 868.13,404.0781 Q867.4894,404.2344 866.7863,404.2344 Q864.2863,404.2344 862.9581,402.5938 Q861.6456,400.9375 861.6456,397.8125 Q861.6456,394.6875 862.9581,393.0313 Q864.2863,391.375 866.7863,391.375 Q867.4894,391.375 868.13,391.5313 Q868.7863,391.6875 869.3488,391.9844 L869.3488,394.7031 Q868.7238,394.125 868.13,393.8594 Q867.5363,393.5781 866.9113,393.5781 Q865.5675,393.5781 864.88,394.6563 Q864.1925,395.7188 864.1925,397.8125 Q864.1925,399.9063 864.88,400.9844 Q865.5675,402.0469 866.9113,402.0469 Q867.5363,402.0469 868.13,401.7813 Q868.7238,401.5 869.3488,400.9219 L869.3488,403.6406 Z " fill="#000000"/><text fill="#000000" font-family="sans-serif" font-size="14" lengthAdjust="spacing" textLength="56.1162" x="880.38" y="402.8467">Paradas</text><line style="stroke:#181818;stroke-width:0.5;" x1="852.38" x2="938.4962" y1="414" y2="414"/><line style="stroke:#181818;stroke-width:0.5;" x1="852.38" x2="938.4962" y1="422" y2="422"/></g><!--class Horarios--><g id="elem_Horarios"><rect codeLine="54" fill="#F1F1F1" height="48" id="Horarios" rx="2.5" ry="2.5" style="stroke:#181818;stroke-width:0.5;" width="90.9326" x="724.88" y="382"/><ellipse cx="739.88" cy="398" fill="#ADD1B2" rx="11" ry="11" style="stroke:#181818;stroke-width:1.0;"/><path d="M742.8488,403.6406 Q742.2706,403.9375 741.63,404.0781 Q740.9894,404.2344 740.2863,404.2344 Q737.7863,404.2344 736.4581,402.5938 Q735.1456,400.9375 735.1456,397.8125 Q735.1456,394.6875 736.4581,393.0313 Q737.7863,391.375 740.2863,391.375 Q740.9894,391.375 741.63,391.5313 Q742.2863,391.6875 742.8488,391.9844 L742.8488,394.7031 Q742.2238,394.125 741.63,393.8594 Q741.0363,393.5781 740.4113,393.5781 Q739.0675,393.5781 738.38,394.6563 Q737.6925,395.7188 737.6925,397.8125 Q737.6925,399.9063 738.38,400.9844 Q739.0675,402.0469 740.4113,402.0469 Q741.0363,402.0469 741.63,401.7813 Q742.2238,401.5 742.8488,400.9219 L742.8488,403.6406 Z " fill="#000000"/><text fill="#000000" font-family="sans-serif" font-size="14" lengthAdjust="spacing" textLength="58.9326" x="753.88" y="402.8467">Horarios</text><line style="stroke:#181818;stroke-width:0.5;" x1="725.88" x2="814.8126" y1="414" y2="414"/><line style="stroke:#181818;stroke-width:0.5;" x1="725.88" x2="814.8126" y1="422" y2="422"/></g><!--class Abono--><g id="elem_Abono"><rect fill="#F1F1F1" height="48" id="Abono" rx="2.5" ry="2.5" style="stroke:#181818;stroke-width:0.5;" width="76.4678" x="691.38" y="616"/><ellipse cx="706.38" cy="632" fill="#ADD1B2" rx="11" ry="11" style="stroke:#181818;stroke-width:1.0;"/><path d="M709.3488,637.6406 Q708.7706,637.9375 708.13,638.0781 Q707.4894,638.2344 706.7863,638.2344 Q704.2863,638.2344 702.9581,636.5938 Q701.6456,634.9375 701.6456,631.8125 Q701.6456,628.6875 702.9581,627.0313 Q704.2863,625.375 706.7863,625.375 Q707.4894,625.375 708.13,625.5313 Q708.7863,625.6875 709.3488,625.9844 L709.3488,628.7031 Q708.7238,628.125 708.13,627.8594 Q707.5363,627.5781 706.9113,627.5781 Q705.5675,627.5781 704.88,628.6563 Q704.1925,629.7188 704.1925,631.8125 Q704.1925,633.9063 704.88,634.9844 Q705.5675,636.0469 706.9113,636.0469 Q707.5363,636.0469 708.13,635.7813 Q708.7238,635.5 709.3488,634.9219 L709.3488,637.6406 Z " fill="#000000"/><text fill="#000000" font-family="sans-serif" font-size="14" lengthAdjust="spacing" textLength="44.4678" x="720.38" y="636.8467">Abono</text><line style="stroke:#181818;stroke-width:0.5;" x1="692.38" x2="766.8478" y1="648" y2="648"/><line style="stroke:#181818;stroke-width:0.5;" x1="692.38" x2="766.8478" y1="656" y2="656"/></g><!--reverse link Persona to Pasajero--><g id="link_Persona_Pasajero"><path codeLine="11" d="M203.0554,193.342 C223.4354,215.332 241.68,235.01 262.03,256.97 " fill="none" id="Persona-backto-Pasajero" style="stroke:#181818;stroke-width:1.0;"/><polygon fill="none" points="190.82,180.14,198.6548,197.4205,207.4561,189.2636,190.82,180.14" style="stroke:#181818;stroke-width:1.0;"/></g><!--link Pasajero to Vehiculo--><g id="link_Pasajero_Vehiculo"><path codeLine="12" d="M278.7,305.17 C276.91,314.43 274.93,325.2 273.38,335 C270.9,350.61 269.3542,362.3027 267.7142,375.9827 " fill="none" id="Pasajero-to-Vehiculo" style="stroke:#181818;stroke-width:1.0;"/><polygon fill="#181818" points="267,381.94,272.0428,373.4801,267.5952,376.9755,264.0997,372.5279,267,381.94" style="stroke:#181818;stroke-width:1.0;"/><text fill="#000000" font-family="sans-serif" font-size="13" lengthAdjust="spacing" textLength="81.1929" x="274.38" y="348.0669">se monta en</text></g><!--link Pasajero to Tarifa--><g id="link_Pasajero_Tarifa"><path codeLine="13" d="M329.44,300.95 C389.07,325.48 486.201,365.4378 540.591,387.8078 " fill="none" id="Pasajero-to-Tarifa" style="stroke:#181818;stroke-width:1.0;"/><polygon fill="#181818" points="546.14,390.09,539.338,382.9673,541.5158,388.1881,536.295,390.366,546.14,390.09" style="stroke:#181818;stroke-width:1.0;"/><text fill="#000000" font-family="sans-serif" font-size="13" lengthAdjust="spacing" textLength="59.9092" x="452.38" y="348.0669">paga con</text></g><!--reverse link Persona to Conductor--><g id="link_Persona_Conductor"><path codeLine="17" d="M163.0575,197.9298 C159.6675,219.9198 157.32,235.01 153.93,256.97 " fill="none" id="Persona-backto-Conductor" style="stroke:#181818;stroke-width:1.0;"/><polygon fill="none" points="165.8,180.14,157.1276,197.0157,168.9874,198.844,165.8,180.14" style="stroke:#181818;stroke-width:1.0;"/></g><!--link Conductor to Vehiculo--><g id="link_Conductor_Vehiculo"><path codeLine="18" d="M167.84,305.05 C178.75,319.04 193.34,337.01 207.38,352 C216.98,362.26 223.7574,368.8862 233.6774,377.9362 " fill="none" id="Conductor-to-Vehiculo" style="stroke:#181818;stroke-width:1.0;"/><polygon fill="#181818" points="238.11,381.98,234.157,372.9592,234.4162,378.6102,228.7653,378.8693,238.11,381.98" style="stroke:#181818;stroke-width:1.0;"/><text fill="#000000" font-family="sans-serif" font-size="13" lengthAdjust="spacing" textLength="54.9771" x="208.38" y="348.0669">conduce</text></g><!--link Conductor to Incidencia--><g id="link_Conductor_Incidencia"><path codeLine="19" d="M150.29,305.08 C150.25,334.2 150.34,385.82 151.38,430 C151.99,456.4 153.009,480.7166 153.959,500.9766 " fill="none" id="Conductor-to-Incidencia" style="stroke:#181818;stroke-width:1.0;"/><polygon fill="#181818" points="154.24,506.97,157.8141,497.7925,154.0058,501.9755,149.8228,498.1672,154.24,506.97" style="stroke:#181818;stroke-width:1.0;"/><text fill="#000000" font-family="sans-serif" font-size="13" lengthAdjust="spacing" textLength="47.9565" x="152.38" y="410.5669">reporta</text></g><!--link Tarifa to FormaDePago--><g id="link_Tarifa_FormaDePago"><path codeLine="23" d="M610.03,430.14 C636.31,452.13 671.0087,481.1592 697.2487,503.1192 " fill="none" id="Tarifa-to-FormaDePago" style="stroke:#181818;stroke-width:1.0;"/><polygon fill="#181818" points="701.85,506.97,697.5153,498.1264,698.0156,503.761,692.3809,504.2614,701.85,506.97" style="stroke:#181818;stroke-width:1.0;"/><text fill="#000000" font-family="sans-serif" font-size="13" lengthAdjust="spacing" textLength="78.8125" x="665.38" y="473.0669">se paga con</text></g><!--link Vehiculo to Incidencia--><g id="link_Vehiculo_Incidencia"><path codeLine="30" d="M243.87,430.14 C224.39,452.13 199.2182,480.5184 179.7682,502.4784 " fill="none" id="Vehiculo-to-Incidencia" style="stroke:#181818;stroke-width:1.0;"/><polygon fill="#181818" points="175.79,506.97,184.7516,502.8848,179.1051,503.227,178.7629,497.5805,175.79,506.97" style="stroke:#181818;stroke-width:1.0;"/><text fill="#000000" font-family="sans-serif" font-size="13" lengthAdjust="spacing" textLength="32.9316" x="218.38" y="473.0669">sufre</text></g><!--link Flota to Vehiculo--><g id="link_Flota_Vehiculo"><path codeLine="34" d="M488.27,180.05 C495.34,220.16 503.36,303.18 461.38,352 C441.86,374.69 374.1148,388.6589 322.2648,396.7989 " fill="none" id="Flota-to-Vehiculo" style="stroke:#181818;stroke-width:1.0;"/><polygon fill="#181818" points="310.41,398.66,316.9578,401.681,322.2648,396.7989,315.717,393.7778,310.41,398.66" style="stroke:#181818;stroke-width:1.0;"/><text fill="#000000" font-family="sans-serif" font-size="13" lengthAdjust="spacing" textLength="46.541" x="495.38" y="285.5669">incluye</text></g><!--link Flota to SistemaDeTransportePublico--><g id="link_Flota_SistemaDeTransportePublico"><path codeLine="35" d="M449.65,148.62 C407.24,139.04 342.77,118.44 367.38,85 C380.47,67.2 393.9292,57.3778 414.5692,49.3378 " fill="none" id="Flota-to-SistemaDeTransportePublico" style="stroke:#181818;stroke-width:1.0;"/><polygon fill="#181818" points="420.16,47.16,410.3219,46.6995,415.501,48.9748,413.2257,54.1539,420.16,47.16" style="stroke:#181818;stroke-width:1.0;"/><text fill="#000000" font-family="sans-serif" font-size="13" lengthAdjust="spacing" textLength="78.1714" x="368.38" y="98.0669">pertenece a</text></g><!--link SistemaDeTransportePublico to Flota--><g id="link_SistemaDeTransportePublico_Flota"><path codeLine="61" d="M508.83,55.16 C500.41,63.61 492.18,73.85 487.38,85 C481.07,99.65 479.9061,111.6358 480.5261,125.7158 " fill="none" id="SistemaDeTransportePublico-to-Flota" style="stroke:#181818;stroke-width:1.0;"/><polygon fill="#181818" points="480.79,131.71,484.3902,122.5427,480.57,126.7148,476.3979,122.8947,480.79,131.71" style="stroke:#181818;stroke-width:1.0;"/><text fill="#000000" font-family="sans-serif" font-size="13" lengthAdjust="spacing" textLength="69.5259" x="488.38" y="98.0669">administra</text></g><!--link Servicio to Ruta--><g id="link_Servicio_Ruta"><path codeLine="42" d="M717.6,180.14 C729.22,202.13 743.7976,229.7047 755.3976,251.6647 " fill="none" id="Servicio-to-Ruta" style="stroke:#181818;stroke-width:1.0;"/><polygon fill="#181818" points="758.2,256.97,757.5332,247.1437,755.8646,252.5489,750.4595,250.8803,758.2,256.97" style="stroke:#181818;stroke-width:1.0;"/><text fill="#000000" font-family="sans-serif" font-size="13" lengthAdjust="spacing" textLength="41.0186" x="742.38" y="223.0669">ofrece</text></g><!--link Servicio to Incidencia--><g id="link_Servicio_Incidencia"><path codeLine="43" d="M707.03,180.37 C709.39,233.13 707.14,362.18 636.38,430 C575.1,488.72 324.4182,516.0595 213.1582,525.5595 " fill="none" id="Servicio-to-Incidencia" style="stroke:#181818;stroke-width:1.0;"/><polygon fill="#181818" points="207.18,526.07,216.4877,529.2898,212.1619,525.6446,215.8071,521.3188,207.18,526.07" style="stroke:#181818;stroke-width:1.0;"/><text fill="#000000" font-family="sans-serif" font-size="13" lengthAdjust="spacing" textLength="22.9785" x="690.38" y="348.0669">usa</text></g><!--link Servicio to SistemaDeTransportePublico--><g id="link_Servicio_SistemaDeTransportePublico"><path codeLine="44" d="M710.23,131.91 C711.99,117.04 711.49,98.1 701.38,85 C689.4,69.49 678.3122,60.8429 660.2622,52.9929 " fill="none" id="Servicio-to-SistemaDeTransportePublico" style="stroke:#181818;stroke-width:1.0;"/><polygon fill="#181818" points="654.76,50.6,661.418,57.8575,659.3451,52.5941,664.6085,50.5213,654.76,50.6" style="stroke:#181818;stroke-width:1.0;"/><text fill="#000000" font-family="sans-serif" font-size="13" lengthAdjust="spacing" textLength="97.7793" x="709.38" y="98.0669">gestionado por</text></g><!--link SistemaDeTransportePublico to Servicio--><g id="link_SistemaDeTransportePublico_Servicio"><path codeLine="63" d="M568.98,55.14 C599.01,77.13 639.0891,106.4652 669.0791,128.4252 " fill="none" id="SistemaDeTransportePublico-to-Servicio" style="stroke:#181818;stroke-width:1.0;"/><polygon fill="#181818" points="673.92,131.97,669.0218,123.4256,669.8859,129.016,664.2954,129.8802,673.92,131.97" style="stroke:#181818;stroke-width:1.0;"/><text fill="#000000" font-family="sans-serif" font-size="13" lengthAdjust="spacing" textLength="56.4688" x="632.38" y="98.0669">coordina</text></g><!--link Ruta to Paradas--><g id="link_Ruta_Paradas"><path codeLine="51" d="M793.89,305.14 C816.24,327.13 841.1079,351.5921 863.4179,373.5521 " fill="none" id="Ruta-to-Paradas" style="stroke:#181818;stroke-width:1.0;"/><polygon fill="#181818" points="871.97,381.97,870.4999,374.9103,863.4179,373.5521,864.888,380.6117,871.97,381.97" style="stroke:#181818;stroke-width:1.0;"/><text fill="#000000" font-family="sans-serif" font-size="13" lengthAdjust="spacing" textLength="60.2075" x="840.38" y="348.0669">compone</text></g><!--link Ruta to Horarios--><g id="link_Ruta_Horarios"><path codeLine="52" d="M770.38,305.14 C770.38,327.13 770.38,354.01 770.38,375.97 " fill="none" id="Ruta-to-Horarios" style="stroke:#181818;stroke-width:1.0;"/><polygon fill="#181818" points="770.38,381.97,774.38,372.97,770.38,376.97,766.38,372.97,770.38,381.97" style="stroke:#181818;stroke-width:1.0;"/><text fill="#000000" font-family="sans-serif" font-size="13" lengthAdjust="spacing" textLength="32.9443" x="771.38" y="348.0669">tiene</text></g><!--link Incidencia to Persona--><g id="link_Incidencia_Persona"><path codeLine="58" d="M122.19,506.78 C77.53,472.39 6,404.48 27.38,335 C47.54,269.44 101.0823,214.9385 136.4023,184.0685 " fill="none" id="Incidencia-to-Persona" style="stroke:#181818;stroke-width:1.0;stroke-dasharray:7.0,7.0;"/><polygon fill="#181818" points="140.92,180.12,131.5112,183.031,137.1553,183.4104,136.7758,189.0545,140.92,180.12" style="stroke:#181818;stroke-width:1.0;"/><text fill="#000000" font-family="sans-serif" font-size="13" lengthAdjust="spacing" textLength="113.2739" x="28.38" y="348.0669">relaci&#243;n indirecta</text></g><!--link SistemaDeTransportePublico to Tarifa--><g id="link_SistemaDeTransportePublico_Tarifa"><path codeLine="62" d="M550.56,55.03 C555.12,64.08 559.74,74.75 562.38,85 C576.82,141.2 580.9002,312.1208 581.9602,375.8408 " fill="none" id="SistemaDeTransportePublico-to-Tarifa" style="stroke:#181818;stroke-width:1.0;"/><polygon fill="#181818" points="582.06,381.84,585.9097,372.7747,581.9768,376.8407,577.9109,372.9078,582.06,381.84" style="stroke:#181818;stroke-width:1.0;"/><text fill="#000000" font-family="sans-serif" font-size="13" lengthAdjust="spacing" textLength="62.8418" x="577.38" y="223.0669">establece</text></g><!--link SistemaDeTransportePublico to Persona--><g id="link_SistemaDeTransportePublico_Persona"><path codeLine="64" d="M420.09,43.53 C346.58,52.37 259.82,66.25 227.38,85 C208.25,96.06 195.941,110.9171 185.781,126.6771 " fill="none" id="SistemaDeTransportePublico-to-Persona" style="stroke:#181818;stroke-width:1.0;"/><polygon fill="#181818" points="182.53,131.72,190.7685,126.323,185.2392,127.5176,184.0446,121.9883,182.53,131.72" style="stroke:#181818;stroke-width:1.0;"/><text fill="#000000" font-family="sans-serif" font-size="13" lengthAdjust="spacing" textLength="125.3154" x="228.38" y="98.0669">ofrece transporte a</text></g><!--reverse link FormaDePago to Abono--><g id="link_FormaDePago_Abono"><path codeLine="67" d="M729.38,573.22 C729.38,591.16 729.38,597.89 729.38,615.83 " fill="none" id="FormaDePago-backto-Abono" style="stroke:#181818;stroke-width:1.0;"/><polygon fill="none" points="729.38,555.22,723.38,573.22,735.38,573.22,729.38,555.22" style="stroke:#181818;stroke-width:1.0;"/></g><!--SRC=[XLJ1Rjim3BtxAtWhKC3zWA88CAmOkblG5hqpCfDgi4L3b8kcspvevzrspO-DacDPJe3qOaZaazxZ8-KhkBUuyzWXD0IcHI41xeFjx0Ss33rwX2ShWKR4iqSdFVj0i3xysxJMS5N5OpAXxcd6h8U4W9_Lxmcr9Y_iS152mH_aHzYKl_jLrpbJPKXTh-25NgqPMePR48AENK0WjyGyexTRL4IFEmJ3RYBxoguPJ61_pfPJrGmwuJCfGIU0xyxOXlGJ2Jt5qd7YEmg9PCTbFF6DVNHgZRjZ5QSoIq1XLPOIOtbpfa66hQTyLSjX532kwlgwBCawqmvxoidLfKQgdwHRHuOWbrXG5rAVoBzPOqUfUHFlVnn25CcgKQrSf1PL38BBx4LXEv9WjPTnQBM5UROyDYYbi4GVzsaHtPX0iRzTpuwcr0eUs6lNEEQ2rRgdIt8yNNm5ZzIYiOU_Jlrih1QMPZ9uAalQv-b721xV3dyalgbvxWhipSqge-DGdLqVMVKalQVmo4KjoFnMm_nMzn2uKRKoY8AeKpXBTS7FDAHf8cu1cyuwXNhyx4H-TTeBtBIflPTFvFv6xzatrdrAChioJb1P9ovxCRhoPSEErOBoJMq7ISE2KfNXz1z8-Fy0]--></g></svg>