<svg xmlns="http://www.w3.org/2000/svg" xmlns:xlink="http://www.w3.org/1999/xlink" contentStyleType="text/css" height="855px" preserveAspectRatio="none" style="width:721px;height:855px;background:#FFFFFF;" version="1.1" viewBox="0 0 721 855" width="721px" zoomAndPan="magnify"><defs/><g><ellipse cx="305.5" cy="16" fill="#222222" rx="10" ry="10" style="stroke:#222222;stroke-width:1.0;"/><path d="M19.5,103 L223.5786,103 A12.5,12.5 0 0 1 236.0786,115.5 L236.0786,129.2969 L7,129.2969 L7,115.5 A12.5,12.5 0 0 1 19.5,103 " fill="#F1F1F1" style="stroke:#F1F1F1;stroke-width:1.0;"/><rect fill="none" height="746.8906" rx="12.5" ry="12.5" style="stroke:#181818;stroke-width:0.5;" width="229.0786" x="7" y="103"/><line style="stroke:#181818;stroke-width:0.5;" x1="7" x2="236.0786" y1="129.2969" y2="129.2969"/><text fill="#000000" font-family="sans-serif" font-size="14" lengthAdjust="spacing" textLength="74.2998" x="84.3894" y="120.9951">Esperando</text><ellipse cx="118" cy="150.2969" fill="#222222" rx="10" ry="10" style="stroke:#222222;stroke-width:1.0;"/><g id="Esperando.EsperandoEnParada"><rect fill="#F1F1F1" height="50" rx="12.5" ry="12.5" style="stroke:#181818;stroke-width:0.5;" width="160.8408" x="37.5" y="197.2969"/><line style="stroke:#181818;stroke-width:0.5;" x1="37.5" x2="198.3408" y1="223.5938" y2="223.5938"/><text fill="#000000" font-family="sans-serif" font-size="14" lengthAdjust="spacing" textLength="140.8408" x="47.5" y="215.292">EsperandoEnParada</text></g><path d="M31.5,300.2969 L204.2266,300.2969 A12.5,12.5 0 0 1 216.7266,312.7969 L216.7266,326.5938 L19,326.5938 L19,312.7969 A12.5,12.5 0 0 1 31.5,300.2969 " fill="#F1F1F1" style="stroke:#F1F1F1;stroke-width:1.0;"/><rect fill="none" height="539.5938" rx="12.5" ry="12.5" style="stroke:#181818;stroke-width:0.5;" width="197.7266" x="19" y="300.2969"/><line style="stroke:#181818;stroke-width:0.5;" x1="19" x2="216.7266" y1="326.5938" y2="326.5938"/><text fill="#000000" font-family="sans-serif" font-size="14" lengthAdjust="spacing" textLength="138.7354" x="48.4956" y="318.292">MontadoEnVehiculo</text><ellipse cx="106.5" cy="347.5938" fill="#222222" rx="10" ry="10" style="stroke:#222222;stroke-width:1.0;"/><g id="Esperando.MontadoEnVehiculo.PagoPendiente"><rect fill="#F1F1F1" height="50" rx="12.5" ry="12.5" style="stroke:#181818;stroke-width:0.5;" width="124.7676" x="44" y="394.5938"/><line style="stroke:#181818;stroke-width:0.5;" x1="44" x2="168.7676" y1="420.8906" y2="420.8906"/><text fill="#000000" font-family="sans-serif" font-size="14" lengthAdjust="spacing" textLength="104.7676" x="54" y="412.5889">PagoPendiente</text></g><g id="Esperando.MontadoEnVehiculo.ViajeEnProgreso"><rect fill="#F1F1F1" height="50" rx="12.5" ry="12.5" style="stroke:#181818;stroke-width:0.5;" width="134.1465" x="39.5" y="497.5938"/><line style="stroke:#181818;stroke-width:0.5;" x1="39.5" x2="173.6465" y1="523.8906" y2="523.8906"/><text fill="#000000" font-family="sans-serif" font-size="14" lengthAdjust="spacing" textLength="114.1465" x="49.5" y="515.5889">ViajeEnProgreso</text></g><path d="M43.5,600.5938 L169.3364,600.5938 A12.5,12.5 0 0 1 181.8364,613.0938 L181.8364,626.8906 L31,626.8906 L31,613.0938 A12.5,12.5 0 0 1 43.5,600.5938 " fill="#F1F1F1" style="stroke:#F1F1F1;stroke-width:1.0;"/><rect fill="none" height="229.2969" rx="12.5" ry="12.5" style="stroke:#181818;stroke-width:0.5;" width="150.8364" x="31" y="600.5938"/><line style="stroke:#181818;stroke-width:0.5;" x1="31" x2="181.8364" y1="626.8906" y2="626.8906"/><text fill="#000000" font-family="sans-serif" font-size="14" lengthAdjust="spacing" textLength="56.9775" x="77.9294" y="618.5889">Bajando</text><ellipse cx="92.5" cy="647.8906" fill="#222222" rx="10" ry="10" style="stroke:#222222;stroke-width:1.0;"/><g id="Esperando.MontadoEnVehiculo.Bajando.FinDelViaje"><rect fill="#F1F1F1" height="50" rx="12.5" ry="12.5" style="stroke:#181818;stroke-width:0.5;" width="98.6475" x="43" y="694.8906"/><line style="stroke:#181818;stroke-width:0.5;" x1="43" x2="141.6475" y1="721.1875" y2="721.1875"/><text fill="#000000" font-family="sans-serif" font-size="14" lengthAdjust="spacing" textLength="78.6475" x="53" y="712.8857">FinDelViaje</text></g><ellipse cx="92.5" cy="808.8906" fill="none" rx="11" ry="11" style="stroke:#222222;stroke-width:1.0;"/><ellipse cx="92.5" cy="808.8906" fill="#222222" rx="6" ry="6" style="stroke:#222222;stroke-width:1.0;"/><!--link *start*Bajando to FinDelViaje--><g id="link_*start*Bajando_FinDelViaje"><path d="M92.5,658.0406 C92.5,667.3106 92.5,676.0306 92.5,688.6706 " fill="none" id="*start*Bajando-to-FinDelViaje" style="stroke:#181818;stroke-width:1.0;"/><polygon fill="#181818" points="92.5,694.6706,96.5,685.6706,92.5,689.6706,88.5,685.6706,92.5,694.6706" style="stroke:#181818;stroke-width:1.0;"/></g><!--link FinDelViaje to *end*Bajando--><g id="link_FinDelViaje_*end*Bajando"><path d="M92.5,745.1206 C92.5,762.4206 92.5,778.8106 92.5,791.6406 " fill="none" id="FinDelViaje-to-*end*Bajando" style="stroke:#181818;stroke-width:1.0;"/><polygon fill="#181818" points="92.5,797.6406,96.5,788.6406,92.5,792.6406,88.5,788.6406,92.5,797.6406" style="stroke:#181818;stroke-width:1.0;"/><text fill="#000000" font-family="sans-serif" font-size="13" lengthAdjust="spacing" textLength="78.3364" x="93.5" y="775.9575">Fin del viaje</text></g><!--link *start*MontadoEnVehiculo to PagoPendiente--><g id="link_*start*MontadoEnVehiculo_PagoPendiente"><path d="M106.5,357.7438 C106.5,367.0138 106.5,375.7338 106.5,388.3738 " fill="none" id="*start*MontadoEnVehiculo-to-PagoPendiente" style="stroke:#181818;stroke-width:1.0;"/><polygon fill="#181818" points="106.5,394.3738,110.5,385.3738,106.5,389.3738,102.5,385.3738,106.5,394.3738" style="stroke:#181818;stroke-width:1.0;"/></g><!--link PagoPendiente to ViajeEnProgreso--><g id="link_PagoPendiente_ViajeEnProgreso"><path d="M106.5,444.7838 C106.5,460.6638 106.5,475.3438 106.5,491.2538 " fill="none" id="PagoPendiente-to-ViajeEnProgreso" style="stroke:#181818;stroke-width:1.0;"/><polygon fill="#181818" points="106.5,497.2538,110.5,488.2538,106.5,492.2538,102.5,488.2538,106.5,497.2538" style="stroke:#181818;stroke-width:1.0;"/><text fill="#000000" font-family="sans-serif" font-size="13" lengthAdjust="spacing" textLength="95.6719" x="107.5" y="475.6606">Pago realizado</text></g><!--link ViajeEnProgreso to Bajando--><g id="link_ViajeEnProgreso_Bajando"><path d="M106.5,547.7238 C106.5,561.7338 106.5,574.5238 106.5,594.4338 " fill="none" id="ViajeEnProgreso-to-Bajando" style="stroke:#181818;stroke-width:1.0;"/><polygon fill="#181818" points="106.5,600.4338,110.5,591.4338,106.5,595.4338,102.5,591.4338,106.5,600.4338" style="stroke:#181818;stroke-width:1.0;"/><text fill="#000000" font-family="sans-serif" font-size="13" lengthAdjust="spacing" textLength="99.2266" x="107.5" y="578.6606">Llega a destino</text></g><!--link *start*Esperando to EsperandoEnParada--><g id="link_*start*Esperando_EsperandoEnParada"><path d="M118,160.4469 C118,169.7169 118,178.4369 118,191.0769 " fill="none" id="*start*Esperando-to-EsperandoEnParada" style="stroke:#181818;stroke-width:1.0;"/><polygon fill="#181818" points="118,197.0769,122,188.0769,118,192.0769,114,188.0769,118,197.0769" style="stroke:#181818;stroke-width:1.0;"/></g><!--link EsperandoEnParada to MontadoEnVehiculo--><g id="link_EsperandoEnParada_MontadoEnVehiculo"><path d="M118,247.3569 C118,260.7569 118,272.9869 118,293.9969 " fill="none" id="EsperandoEnParada-to-MontadoEnVehiculo" style="stroke:#181818;stroke-width:1.0;"/><polygon fill="#181818" points="118,299.9969,122,290.9969,118,294.9969,114,290.9969,118,299.9969" style="stroke:#181818;stroke-width:1.0;"/><text fill="#000000" font-family="sans-serif" font-size="13" lengthAdjust="spacing" textLength="107.0786" x="119" y="278.3638">Sube al veh&#237;culo</text></g><path d="M283.5,198 L695.4158,198 A12.5,12.5 0 0 1 707.9158,210.5 L707.9158,224.2969 L271,224.2969 L271,210.5 A12.5,12.5 0 0 1 283.5,198 " fill="#F1F1F1" style="stroke:#F1F1F1;stroke-width:1.0;"/><rect fill="none" height="556.8906" rx="12.5" ry="12.5" style="stroke:#181818;stroke-width:0.5;" width="436.9158" x="271" y="198"/><line style="stroke:#181818;stroke-width:0.5;" x1="271" x2="707.9158" y1="224.2969" y2="224.2969"/><text fill="#000000" font-family="sans-serif" font-size="14" lengthAdjust="spacing" textLength="123.1836" x="427.8661" y="215.9951">EnMantenimiento</text><ellipse cx="491" cy="245.2969" fill="#222222" rx="10" ry="10" style="stroke:#222222;stroke-width:1.0;"/><g id="EnMantenimiento.Mantenimiento"><rect fill="#F1F1F1" height="50" rx="12.5" ry="12.5" style="stroke:#181818;stroke-width:0.5;" width="125.4648" x="428.5" y="292.2969"/><line style="stroke:#181818;stroke-width:0.5;" x1="428.5" x2="553.9648" y1="318.5938" y2="318.5938"/><text fill="#000000" font-family="sans-serif" font-size="14" lengthAdjust="spacing" textLength="105.4648" x="438.5" y="310.292">Mantenimiento</text></g><path d="M295.5,395.2969 L686.4158,395.2969 A12.5,12.5 0 0 1 698.9158,407.7969 L698.9158,421.5938 L283,421.5938 L283,407.7969 A12.5,12.5 0 0 1 295.5,395.2969 " fill="#F1F1F1" style="stroke:#F1F1F1;stroke-width:1.0;"/><rect fill="none" height="349.5938" rx="12.5" ry="12.5" style="stroke:#181818;stroke-width:0.5;" width="415.9158" x="283" y="395.2969"/><line style="stroke:#181818;stroke-width:0.5;" x1="283" x2="698.9158" y1="421.5938" y2="421.5938"/><text fill="#000000" font-family="sans-serif" font-size="14" lengthAdjust="spacing" textLength="73.5684" x="454.1737" y="413.292">Disponible</text><ellipse cx="478.51" cy="442.5938" fill="#222222" rx="10" ry="10" style="stroke:#222222;stroke-width:1.0;"/><g id="EnMantenimiento.Disponible.EnRuta"><rect fill="#F1F1F1" height="50" rx="12.5" ry="12.5" style="stroke:#181818;stroke-width:0.5;" width="70.3877" x="443.51" y="489.5938"/><line style="stroke:#181818;stroke-width:0.5;" x1="443.51" x2="513.8977" y1="515.8906" y2="515.8906"/><text fill="#000000" font-family="sans-serif" font-size="14" lengthAdjust="spacing" textLength="50.3877" x="453.51" y="507.5889">EnRuta</text></g><g id="EnMantenimiento.Disponible.ParadaTemporal"><rect fill="#F1F1F1" height="50" rx="12.5" ry="12.5" style="stroke:#181818;stroke-width:0.5;" width="135.3018" x="315.01" y="638.5938"/><line style="stroke:#181818;stroke-width:0.5;" x1="315.01" x2="450.3118" y1="664.8906" y2="664.8906"/><text fill="#000000" font-family="sans-serif" font-size="14" lengthAdjust="spacing" textLength="115.3018" x="325.01" y="656.5889">ParadaTemporal</text></g><path d="M550.01,592.5938 L658.5989,592.5938 A12.5,12.5 0 0 1 671.0989,605.0938 L671.0989,618.8906 L537.51,618.8906 L537.51,605.0938 A12.5,12.5 0 0 1 550.01,592.5938 " fill="#F1F1F1" style="stroke:#F1F1F1;stroke-width:1.0;"/><rect fill="none" height="142.2969" rx="12.5" ry="12.5" style="stroke:#181818;stroke-width:0.5;" width="133.5889" x="537.51" y="592.5938"/><line style="stroke:#181818;stroke-width:0.5;" x1="537.51" x2="671.0989" y1="618.8906" y2="618.8906"/><text fill="#000000" font-family="sans-serif" font-size="14" lengthAdjust="spacing" textLength="70.5537" x="569.0276" y="610.5889">Finalizado</text><ellipse cx="562.51" cy="639.8906" fill="#222222" rx="10" ry="10" style="stroke:#222222;stroke-width:1.0;"/><ellipse cx="562.51" cy="713.8906" fill="none" rx="11" ry="11" style="stroke:#222222;stroke-width:1.0;"/><ellipse cx="562.51" cy="713.8906" fill="#222222" rx="6" ry="6" style="stroke:#222222;stroke-width:1.0;"/><!--link *start*Finalizado to *end*Finalizado--><g id="link_*start*Finalizado_*end*Finalizado"><path d="M562.51,650.0106 C562.51,663.4806 562.51,682.6206 562.51,696.6906 " fill="none" id="*start*Finalizado-to-*end*Finalizado" style="stroke:#181818;stroke-width:1.0;"/><polygon fill="#181818" points="562.51,702.6906,566.51,693.6906,562.51,697.6906,558.51,693.6906,562.51,702.6906" style="stroke:#181818;stroke-width:1.0;"/><text fill="#000000" font-family="sans-serif" font-size="13" lengthAdjust="spacing" textLength="97.5889" x="563.51" y="680.9575">Fin del servicio</text></g><!--link *start*Disponible to EnRuta--><g id="link_*start*Disponible_EnRuta"><path d="M478.51,452.7438 C478.51,462.0138 478.51,470.7338 478.51,483.3738 " fill="none" id="*start*Disponible-to-EnRuta" style="stroke:#181818;stroke-width:1.0;"/><polygon fill="#181818" points="478.51,489.3738,482.51,480.3738,478.51,484.3738,474.51,480.3738,478.51,489.3738" style="stroke:#181818;stroke-width:1.0;"/></g><!--link EnRuta to ParadaTemporal--><g id="link_EnRuta_ParadaTemporal"><path d="M443.26,519.5938 C399.92,525.3238 330.15,537.4538 314.51,557.5938 C294,584.0138 318.1701,612.8033 344.3501,634.6133 " fill="none" id="EnRuta-to-ParadaTemporal" style="stroke:#181818;stroke-width:1.0;"/><polygon fill="#181818" points="348.96,638.4538,344.6054,629.6199,345.1184,635.2534,339.4849,635.7664,348.96,638.4538" style="stroke:#181818;stroke-width:1.0;"/><text fill="#000000" font-family="sans-serif" font-size="13" lengthAdjust="spacing" textLength="140.9751" x="315.51" y="570.6606">Parada por incidencia</text></g><!--link ParadaTemporal to EnRuta--><g id="link_ParadaTemporal_EnRuta"><path d="M406.68,638.5438 C422.51,621.7538 442.73,598.2138 456.51,574.5938 C462.85,563.7338 466.0311,556.4153 469.7111,545.3853 " fill="none" id="ParadaTemporal-to-EnRuta" style="stroke:#181818;stroke-width:1.0;"/><polygon fill="#181818" points="471.61,539.6938,464.9672,546.9652,470.0276,544.4367,472.556,549.4971,471.61,539.6938" style="stroke:#181818;stroke-width:1.0;"/><text fill="#000000" font-family="sans-serif" font-size="13" lengthAdjust="spacing" textLength="101.4673" x="464.51" y="570.6606">Retoma el viaje</text></g><!--link EnRuta to Finalizado--><g id="link_EnRuta_Finalizado"><path d="M513.75,524.1538 C532.92,530.4838 555.68,540.9438 570.51,557.5938 C579.37,567.5338 583.7776,574.2231 588.6276,586.8431 " fill="none" id="EnRuta-to-Finalizado" style="stroke:#181818;stroke-width:1.0;"/><polygon fill="#181818" points="590.78,592.4438,591.2852,582.6079,588.9863,587.7765,583.8177,585.4777,590.78,592.4438" style="stroke:#181818;stroke-width:1.0;"/><text fill="#000000" font-family="sans-serif" font-size="13" lengthAdjust="spacing" textLength="106.4058" x="582.51" y="570.6606">Fin del recorrido</text></g><!--link *start*EnMantenimiento to Mantenimiento--><g id="link_*start*EnMantenimiento_Mantenimiento"><path d="M491,255.4469 C491,264.7169 491,273.4369 491,286.0769 " fill="none" id="*start*EnMantenimiento-to-Mantenimiento" style="stroke:#181818;stroke-width:1.0;"/><polygon fill="#181818" points="491,292.0769,495,283.0769,491,287.0769,487,283.0769,491,292.0769" style="stroke:#181818;stroke-width:1.0;"/></g><!--link Mantenimiento to Disponible--><g id="link_Mantenimiento_Disponible"><path d="M491,342.3669 C491,356.0469 491,368.5269 491,389.0769 " fill="none" id="Mantenimiento-to-Disponible" style="stroke:#181818;stroke-width:1.0;"/><polygon fill="#181818" points="491,395.0769,495,386.0769,491,390.0769,487,386.0769,491,395.0769" style="stroke:#181818;stroke-width:1.0;"/><text fill="#000000" font-family="sans-serif" font-size="13" lengthAdjust="spacing" textLength="154.5527" x="492" y="373.3638">Reparaci&#243;n completada</text></g><!--link *start* to Esperando--><g id="link_*start*_Esperando"><path d="M300.06,24.76 C289.92,39.49 267.84,72.72 253.5,103 C247.55,115.56 244.1088,122.956 238.4188,136.066 " fill="none" id="*start*-to-Esperando" style="stroke:#181818;stroke-width:1.0;"/><polygon fill="#181818" points="236.03,141.57,243.2825,134.9066,238.0207,136.9834,235.9439,131.7215,236.03,141.57" style="stroke:#181818;stroke-width:1.0;"/><text fill="#000000" font-family="sans-serif" font-size="13" lengthAdjust="spacing" textLength="82.0435" x="280.5" y="69.0669">En la parada</text></g><!--link *start* to EnMantenimiento--><g id="link_*start*_EnMantenimiento"><path d="M315.15,20.08 C329.6,25.19 356.73,36.8 371.5,56 C403.44,97.53 424.8264,141.6033 441.8164,192.0933 " fill="none" id="*start*-to-EnMantenimiento" style="stroke:#181818;stroke-width:1.0;"/><polygon fill="#181818" points="443.73,197.78,444.6507,187.9743,442.1354,193.0411,437.0685,190.5257,443.73,197.78" style="stroke:#181818;stroke-width:1.0;"/><text fill="#000000" font-family="sans-serif" font-size="13" lengthAdjust="spacing" textLength="90.4097" x="378.5" y="69.0669">En reparaci&#243;n</text></g><!--SRC=[PLAnRi8m4Dtp5RTLgiGFC7HeeLEH8a0iLOV3kOP3ZXtP9aChFgbJjwxyMCycX1WoMF6xT_VEz-u1PeormmQX8fZxW9NriEAcrVp9IcxGeaCWBQ0FTEQj7HhVMXS8ojFVLhEoHV40BwoqbRY64ZtkoGdw_lW1aycJb6v9igJU5EO6DAQw5HQ5Q0OQnRyBaEykRsxASqACtg69kx0czZyt6zgnEkYejJfi2L13HxlJJyIAuqNodfvBbrZRaap5P0AbI8OapeRbdTA4ixKZ7mKZ1noXvYyfdj9kIJ7n6VVzDDuqrGXnhZwm6VLteUHTlRAPaKub4pwwftZaJIEQZEWIxvYxinbcSRN7B53UPBY9R-jDSXGzKdpwDODDDxoyjooM8ZaxScOicsDugqb4bbS5K5QMZaAqU1Z1Y7op5cPv2FqkfD_UiRWBQsfaDyNpQG-0N86DuehamDxAZ7gjcReAjaaxtmrZ7gd8R7jtHuDsfAnpN8ty6_7ovdEBFBcE5KlYFm00]--></g></svg>